<svg width="18" height="19" viewBox="0 0 18 19" fill="none" xmlns="http://www.w3.org/2000/svg">
<path d="M18 14C17.9978 13.9319 17.9848 13.8647 17.9614 13.8007V13.7557L15.39 8.61286C15.341 8.49342 15.2571 8.39152 15.1493 8.32043C15.0415 8.24934 14.9148 8.21235 14.7857 8.21429H9.64286V4.35714H13.5C13.6705 4.35714 13.834 4.28941 13.9546 4.16885C14.0751 4.0483 14.1429 3.88478 14.1429 3.71429V1.14286C14.1429 0.972361 14.0751 0.808848 13.9546 0.688288C13.834 0.567729 13.6705 0.5 13.5 0.5H4.5C4.3295 0.5 4.16599 0.567729 4.04543 0.688288C3.92487 0.808848 3.85714 0.972361 3.85714 1.14286V3.71429C3.85714 3.88478 3.92487 4.0483 4.04543 4.16885C4.16599 4.28941 4.3295 4.35714 4.5 4.35714H8.35714V8.21429H3.21429C3.09557 8.21465 2.97927 8.24787 2.87829 8.31028C2.7773 8.37269 2.69556 8.46184 2.64214 8.56786L0.0707142 13.7107V13.7557C0.0311107 13.8316 0.00706894 13.9147 0 14V17.8571C0 18.0276 0.0677294 18.1912 0.188288 18.3117C0.308848 18.4323 0.472361 18.5 0.642857 18.5H17.3571C17.5276 18.5 17.6912 18.4323 17.8117 18.3117C17.9323 18.1912 18 18.0276 18 17.8571V14ZM11.5714 10.1429H13.5C13.6705 10.1429 13.834 10.2106 13.9546 10.3311C14.0751 10.4517 14.1429 10.6152 14.1429 10.7857C14.1429 10.9562 14.0751 11.1197 13.9546 11.2403C13.834 11.3608 13.6705 11.4286 13.5 11.4286H11.5714C11.4009 11.4286 11.2374 11.3608 11.1169 11.2403C10.9963 11.1197 10.9286 10.9562 10.9286 10.7857C10.9286 10.6152 10.9963 10.4517 11.1169 10.3311C11.2374 10.2106 11.4009 10.1429 11.5714 10.1429ZM4.5 10.1429H9C9.1705 10.1429 9.33401 10.2106 9.45457 10.3311C9.57513 10.4517 9.64286 10.6152 9.64286 10.7857C9.64286 10.9562 9.57513 11.1197 9.45457 11.2403C9.33401 11.3608 9.1705 11.4286 9 11.4286H4.5C4.3295 11.4286 4.16599 11.3608 4.04543 11.2403C3.92487 11.1197 3.85714 10.9562 3.85714 10.7857C3.85714 10.6152 3.92487 10.4517 4.04543 10.3311C4.16599 10.2106 4.3295 10.1429 4.5 10.1429ZM16.7143 17.2143H1.28571V14.6429H16.7143V17.2143Z" fill="white"/>
<path d="M8.35714 16.5714H9.64286C9.81335 16.5714 9.97687 16.5037 10.0974 16.3831C10.218 16.2626 10.2857 16.0991 10.2857 15.9286C10.2857 15.7581 10.218 15.5946 10.0974 15.474C9.97687 15.3534 9.81335 15.2857 9.64286 15.2857H8.35714C8.18665 15.2857 8.02313 15.3534 7.90258 15.474C7.78202 15.5946 7.71429 15.7581 7.71429 15.9286C7.71429 16.0991 7.78202 16.2626 7.90258 16.3831C8.02313 16.5037 8.18665 16.5714 8.35714 16.5714Z" fill="white"/>
</svg>
