<svg width="20" height="17" viewBox="0 0 20 17" fill="none" xmlns="http://www.w3.org/2000/svg">
<path d="M10 0.0361328C7.31875 0.0361328 5.125 2.29899 5.125 5.08715C5.125 7.87532 7.31875 10.1382 10 10.1382C12.6812 10.1382 14.875 7.87532 14.875 5.08715C14.875 2.29899 12.6812 0.0361328 10 0.0361328ZM5.82527 11.209C5.20084 10.7862 4.46477 10.4579 3.72656 10.6417C1.71944 11.1414 0.25 12.6781 0.25 14.5157V15.1892C0.25 15.9331 0.873603 16.5361 1.64286 16.5361H18.3571C19.1264 16.5361 19.75 15.9331 19.75 15.1892V14.5157C19.75 12.6755 18.2938 11.1371 16.2731 10.6396C15.5348 10.4578 14.7993 10.786 14.1752 11.2086C12.99 12.0113 11.5474 12.4953 10 12.4953C8.45282 12.4953 7.01042 12.0114 5.82527 11.209Z" fill="white"/>
</svg>
