<svg xmlns="http://www.w3.org/2000/svg" width="27" height="20" viewBox="0 0 27 20" fill="none">
<path d="M24.6004 0.400391H8.10039C7.34139 0.400391 6.74189 0.773724 6.34589 1.33906L0.400391 9.99506L6.34589 18.6511C6.74189 19.2164 7.34139 19.6004 8.10039 19.6004H24.6004C25.8159 19.6004 26.8004 18.6457 26.8004 17.4671V2.53372C26.8004 1.35506 25.8159 0.400391 24.6004 0.400391ZM21.3004 13.8244L19.7439 15.3337L15.8004 11.5097L11.8569 15.3337L10.3004 13.8244L14.2439 10.0004L10.3004 6.17639L11.8569 4.66706L15.8004 8.49106L19.7439 4.66706L21.3004 6.17639L17.3569 10.0004L21.3004 13.8244Z" fill="#80809A"/>
</svg>