<svg xmlns="http://www.w3.org/2000/svg" width="14" height="14" viewBox="0 0 14 14" fill="none">
  <path d="M2.77077 3.79102C2.68918 3.79098 2.60921 3.81375 2.53989 3.85675C2.47056 3.89976 2.41464 3.9613 2.37844 4.03441C2.34224 4.10752 2.3272 4.1893 2.33502 4.27051C2.34285 4.35172 2.37322 4.42912 2.4227 4.49398L6.65187 10.0356C6.6927 10.0892 6.74535 10.1327 6.80572 10.1626C6.8661 10.1925 6.93256 10.2081 6.99993 10.2081C7.06731 10.2081 7.13377 10.1925 7.19415 10.1626C7.25452 10.1327 7.30717 10.0892 7.348 10.0356L11.5772 4.49398C11.6267 4.42912 11.657 4.35172 11.6648 4.27051C11.6727 4.1893 11.6576 4.10752 11.6214 4.03441C11.5852 3.9613 11.5293 3.89976 11.46 3.85675C11.3907 3.81375 11.3107 3.79098 11.2291 3.79102H2.77077ZM3.65545 4.66602H10.3444L6.99993 9.04842L3.65545 4.66602Z" fill="#D6A11C"/>
</svg>