<svg width="13" height="12" viewBox="0 0 13 12" fill="none" xmlns="http://www.w3.org/2000/svg">
<path d="M10.0641 0C9.5474 0 9.03069 0.200514 8.62966 0.601542L0.825033 8.40617L0.794185 8.56041L0.254339 11.2751L0.100098 12L0.825033 11.8458L3.53969 11.3059L3.69393 11.2751L11.4986 3.47044C12.3006 2.66838 12.3006 1.4036 11.4986 0.601542C11.0975 0.200514 10.5808 0 10.0641 0ZM10.0641 0.940874C10.3128 0.940874 10.5635 1.05463 10.8045 1.29563C11.2845 1.77571 11.2845 2.29627 10.8045 2.77635L10.4497 3.11568L8.98442 1.65039L9.32375 1.29563C9.56475 1.05463 9.81539 0.940874 10.0641 0.940874ZM8.29033 2.34447L9.75562 3.80977L3.78647 9.77892C3.46257 9.14653 2.95357 8.63753 2.32118 8.31363L8.29033 2.34447ZM1.68879 9.11568C2.28069 9.35476 2.74534 9.81941 2.98442 10.4113L1.36488 10.7352L1.68879 9.11568Z" fill="#A7A7C2"/>
</svg>
