<svg width="15" height="14" viewBox="0 0 15 14" fill="none" xmlns="http://www.w3.org/2000/svg">
<path d="M1.33333 0C0.781995 0 0.333328 0.448667 0.333328 1V4H0.999995V10.6667C0.999995 11.402 1.59799 12 2.33333 12H7.5013L7.38932 11.888L6.17447 10.6667H2.33333V4H11.6667L11.668 9.17188L13 7.83984V4H13.6667V1C13.6667 0.448667 13.218 0 12.6667 0H1.33333ZM1.66666 1.33333H12.3333V2.66667H1.66666V1.33333ZM5 5.33333V6.66667H9V5.33333H5ZM14.0586 8.66667L10.9987 11.7266L9.27473 10.0026L8.33203 10.9453L10.9987 13.612L15.0013 9.60938L14.0586 8.66667Z" fill="white"/>
</svg>
