<svg width="15" height="15" viewBox="0 0 15 15" fill="none" xmlns="http://www.w3.org/2000/svg">
<path d="M2 1V12.5655H7.23628C7.88995 13.3773 8.88976 13.9 10.0069 13.9C11.9641 13.9 13.5655 12.2986 13.5655 10.3414C13.5655 8.69153 12.4263 7.29903 10.8966 6.90092V3.92961L7.96695 1H2ZM2.88966 1.88966H7.33793V4.55862H10.0069V6.78276C9.11101 6.78276 8.29192 7.12083 7.6646 7.67241H4.22414V8.56207H6.9322C6.77154 8.8378 6.64858 9.13607 6.56643 9.45172H4.22414V10.3414H6.44828C6.44828 10.8131 6.54295 11.2629 6.71152 11.6759H2.88966V1.88966ZM8.22759 2.51867L9.37788 3.66897H8.22759V2.51867ZM4.22414 5.8931V6.78276H8.67241V5.8931H4.22414ZM10.0069 7.67241C11.4748 7.67241 12.6759 8.87345 12.6759 10.3414C12.6759 11.8093 11.4748 13.0103 10.0069 13.0103C8.53897 13.0103 7.33793 11.8093 7.33793 10.3414C7.33793 8.87345 8.53897 7.67241 10.0069 7.67241Z" fill="#18D6A5"/>
<path d="M10.0069 7.67236C11.4748 7.67236 12.6759 8.8734 12.6759 10.3413C12.6759 11.8093 11.4748 13.0103 10.0069 13.0103C8.53897 13.0103 7.33794 11.8093 7.33794 10.3413C7.33794 8.8734 8.53897 7.67236 10.0069 7.67236Z" fill="#18D6A5"/>
<path d="M11.3414 9.14062L9.8731 10.608L8.85052 9.58545L8.22758 10.2075L9.8731 11.8539L11.9643 9.76269L11.3414 9.14062Z" fill="white"/>
</svg>
