<svg width="18" height="19" viewBox="0 0 18 19" fill="none" xmlns="http://www.w3.org/2000/svg">
<path d="M7.16688 18.3984C7.06837 18.3985 6.97081 18.3792 6.87981 18.3415C6.78881 18.3038 6.70615 18.2484 6.63659 18.1787L4.80347 16.3457C4.73376 16.2761 4.67845 16.1935 4.64071 16.1025C4.60298 16.0115 4.58356 15.914 4.58356 15.8155C4.58356 15.717 4.60298 15.6194 4.64071 15.5284C4.67845 15.4375 4.73376 15.3548 4.80347 15.2852C5.02999 15.0587 5.15449 14.7587 5.15449 14.4407C5.15449 14.122 5.02999 13.822 4.80347 13.5955C4.35119 13.1432 3.56739 13.1425 3.11361 13.5955C3.04401 13.6652 2.96135 13.7205 2.87036 13.7582C2.77937 13.796 2.68183 13.8154 2.58332 13.8154C2.48482 13.8154 2.38728 13.796 2.29628 13.7582C2.20529 13.7205 2.12263 13.6652 2.05304 13.5955L0.219916 11.7625C0.150202 11.6929 0.0948946 11.6102 0.057159 11.5193C0.0194235 11.4283 0 11.3307 0 11.2322C0 11.1337 0.0194235 11.0362 0.057159 10.9452C0.0948946 10.8542 0.150202 10.7716 0.219916 10.702L10.3028 0.618337C10.3724 0.548628 10.4551 0.493325 10.5461 0.455592C10.6371 0.41786 10.7346 0.398437 10.8331 0.398438C10.9316 0.398438 11.0292 0.41786 11.1202 0.455592C11.2112 0.493325 11.2938 0.548628 11.3634 0.618337L13.1965 2.45132C13.2662 2.52091 13.3216 2.60356 13.3593 2.69455C13.397 2.78553 13.4164 2.88307 13.4164 2.98157C13.4164 3.08007 13.397 3.1776 13.3593 3.26858C13.3216 3.35957 13.2662 3.44222 13.1965 3.51181C13.0851 3.62238 12.9967 3.75395 12.9364 3.89891C12.8762 4.04386 12.8453 4.19933 12.8455 4.35631C12.8455 4.67505 12.97 4.97505 13.1965 5.20155C13.6488 5.65379 14.4334 5.65454 14.8864 5.20155C14.956 5.13184 15.0386 5.07654 15.1296 5.0388C15.2206 5.00107 15.3182 4.98165 15.4167 4.98165C15.5152 4.98165 15.6127 5.00107 15.7037 5.0388C15.7947 5.07654 15.8774 5.13184 15.947 5.20155L17.7801 7.03453C17.8498 7.10412 17.9051 7.18678 17.9428 7.27776C17.9806 7.36875 18 7.46628 18 7.56478C18 7.66328 17.9806 7.76081 17.9428 7.85179C17.9051 7.94278 17.8498 8.02543 17.7801 8.09502L7.69716 18.1787C7.62756 18.2484 7.54489 18.3036 7.4539 18.3414C7.36291 18.3791 7.26537 18.3985 7.16688 18.3984Z" fill="white"/>
</svg>
