<svg width="18" height="14" viewBox="0 0 18 14" fill="none" xmlns="http://www.w3.org/2000/svg">
<path d="M15.75 0.25H2.25C1.65326 0.25 1.08097 0.487053 0.65901 0.90901C0.237053 1.33097 0 1.90326 0 2.5V3.25H18V2.5C18 1.90326 17.7629 1.33097 17.341 0.90901C16.919 0.487053 16.3467 0.25 15.75 0.25ZM0 11.5C0 12.0967 0.237053 12.669 0.65901 13.091C1.08097 13.5129 1.65326 13.75 2.25 13.75H15.75C16.3467 13.75 16.919 13.5129 17.341 13.091C17.7629 12.669 18 12.0967 18 11.5V4.75H0V11.5ZM3.75 7.75H6.75C6.94891 7.75 7.13968 7.82902 7.28033 7.96967C7.42098 8.11032 7.5 8.30109 7.5 8.5C7.5 8.69891 7.42098 8.88968 7.28033 9.03033C7.13968 9.17098 6.94891 9.25 6.75 9.25H3.75C3.55109 9.25 3.36032 9.17098 3.21967 9.03033C3.07902 8.88968 3 8.69891 3 8.5C3 8.30109 3.07902 8.11032 3.21967 7.96967C3.36032 7.82902 3.55109 7.75 3.75 7.75Z" fill="white"/>
</svg>
