<svg xmlns="http://www.w3.org/2000/svg" width="12" height="12" viewBox="0 0 12 12" fill="none">
  <path fill-rule="evenodd" clip-rule="evenodd" d="M8.60333 1.8H8.44444C8.44444 1.32261 8.25129 0.864773 7.90747 0.527208C7.56366 0.189642 7.09734 0 6.61111 0H5.38889C4.90266 0 4.43634 0.189642 4.09253 0.527208C3.74871 0.864773 3.55556 1.32261 3.55556 1.8H1.11111C0.949034 1.8 0.793596 1.86321 0.67899 1.97574C0.564385 2.08826 0.5 2.24087 0.5 2.4C0.5 2.55913 0.564385 2.71174 0.67899 2.82426C0.793596 2.93679 0.949034 3 1.11111 3L0.67899 2.82426L1.72222 10.2C1.72222 10.6774 1.91538 11.1352 2.25919 11.4728C2.60301 11.8104 3.06933 12 3.55556 12H8.44444C8.93067 12 9.39699 11.8104 9.74081 11.4728C10.0846 11.1352 10.2778 10.6774 10.2778 10.2L11.4717 2.58035L11.5 2.4L10.8889 3C11.051 3 11.2064 2.93679 11.321 2.82426C11.3911 2.75541 11.4425 2.67154 11.4717 2.58035C11.4903 2.52253 11.5 2.46175 11.5 2.4C11.5 2.24087 11.4356 2.08826 11.321 1.97574C11.2064 1.86321 11.051 1.8 10.8889 1.8H8.60333ZM10.0758 3H2.05169L2.94444 10.2C2.94444 10.3591 3.00883 10.5117 3.12344 10.6243C3.23804 10.7368 3.39348 10.8 3.55556 10.8H8.44444C8.60652 10.8 8.76196 10.7368 8.87657 10.6243C8.99117 10.5117 9.05556 10.3591 9.05556 10.2L10.0758 3ZM4.77778 1.8H7.22222C7.22222 1.64087 7.15784 1.48826 7.04323 1.37574C6.92863 1.26321 6.77319 1.2 6.61111 1.2H5.38889C5.22681 1.2 5.07137 1.26321 4.95677 1.37574C4.84216 1.48826 4.77778 1.64087 4.77778 1.8ZM4.77778 4.2C4.93985 4.2 5.09529 4.26321 5.2099 4.37574C5.3245 4.48826 5.38889 4.64087 5.38889 4.8V9C5.38889 9.15913 5.3245 9.31174 5.2099 9.42426C5.09529 9.53679 4.93985 9.6 4.77778 9.6C4.6157 9.6 4.46026 9.53679 4.34566 9.42426C4.23105 9.31174 4.16667 9.15913 4.16667 9V4.8C4.16667 4.64087 4.23105 4.48826 4.34566 4.37574C4.46026 4.26321 4.6157 4.2 4.77778 4.2ZM7.83333 4.8C7.83333 4.64087 7.76895 4.48826 7.65434 4.37574C7.53974 4.26321 7.3843 4.2 7.22222 4.2C7.06015 4.2 6.90471 4.26321 6.7901 4.37574C6.6755 4.48826 6.61111 4.64087 6.61111 4.8V9C6.61111 9.15913 6.6755 9.31174 6.7901 9.42426C6.90471 9.53679 7.06015 9.6 7.22222 9.6C7.3843 9.6 7.53974 9.53679 7.65434 9.42426C7.76895 9.31174 7.83333 9.15913 7.83333 9V4.8Z" fill="#D9244F"/>
  <path d="M0.67899 2.82426C0.793596 2.93679 0.949034 3 1.11111 3L0.67899 2.82426Z" fill="#D9244F"/>
  <path d="M11.4717 2.58035L11.5 2.4L10.8889 3C11.051 3 11.2064 2.93679 11.321 2.82426C11.3911 2.75541 11.4425 2.67154 11.4717 2.58035Z" fill="#D9244F"/>
</svg>
