<svg width="26" height="32" viewBox="0 0 26 32" fill="none" xmlns="http://www.w3.org/2000/svg">
    <path d="M25.6984 11.2381L14.5873 0.126953H5.06348C3.80054 0.126953 2.58933 0.628653 1.6963 1.52168C0.803274 2.41471 0.301575 3.62592 0.301575 4.88886V27.1111C0.301575 28.374 0.803274 29.5852 1.6963 30.4783C2.58933 31.3713 3.80054 31.873 5.06348 31.873H20.9365C22.1994 31.873 23.4106 31.3713 24.3037 30.4783C25.1967 29.5852 25.6984 28.374 25.6984 27.1111V11.2381Z" fill="#CBD3EE" />
    <path d="M25.6984 11.2381H17.7619C16.92 11.2381 16.1125 10.9036 15.5171 10.3082C14.9218 9.71289 14.5873 8.90542 14.5873 8.06346V0.126953L25.6984 11.2381ZM17.7619 25.5238H8.23812C7.81714 25.5238 7.4134 25.3566 7.11573 25.0589C6.81805 24.7612 6.65082 24.3575 6.65082 23.9365C6.65082 23.5155 6.81805 23.1118 7.11573 22.8141C7.4134 22.5164 7.81714 22.3492 8.23812 22.3492H17.7619C18.1829 22.3492 18.5866 22.5164 18.8843 22.8141C19.182 23.1118 19.3492 23.5155 19.3492 23.9365C19.3492 24.3575 19.182 24.7612 18.8843 25.0589C18.5866 25.3566 18.1829 25.5238 17.7619 25.5238ZM17.7619 19.1746H8.23812C7.81714 19.1746 7.4134 19.0073 7.11573 18.7097C6.81805 18.412 6.65082 18.0083 6.65082 17.5873C6.65082 17.1663 6.81805 16.7626 7.11573 16.4649C7.4134 16.1672 7.81714 16 8.23812 16H17.7619C18.1829 16 18.5866 16.1672 18.8843 16.4649C19.182 16.7626 19.3492 17.1663 19.3492 17.5873C19.3492 18.0083 19.182 18.412 18.8843 18.7097C18.5866 19.0073 18.1829 19.1746 17.7619 19.1746ZM9.82542 12.8254H8.23812C7.81714 12.8254 7.4134 12.6581 7.11573 12.3605C6.81805 12.0628 6.65082 11.659 6.65082 11.2381C6.65082 10.8171 6.81805 10.4134 7.11573 10.1157C7.4134 9.818 7.81714 9.65076 8.23812 9.65076H9.82542C10.2464 9.65076 10.6501 9.818 10.9478 10.1157C11.2455 10.4134 11.4127 10.8171 11.4127 11.2381C11.4127 11.659 11.2455 12.0628 10.9478 12.3605C10.6501 12.6581 10.2464 12.8254 9.82542 12.8254Z" fill="#3242D0" />
</svg>