<svg width="171" height="133" viewBox="0 0 171 133" fill="none" xmlns="http://www.w3.org/2000/svg">
<mask id="path-1-outside-1_1464_277282" maskUnits="userSpaceOnUse" x="0" y="80" width="70" height="53" fill="black">
<rect fill="white" y="80" width="70" height="53"/>
<path d="M11.3478 123C10.9558 123 10.5798 122.842 10.3025 122.561C10.0253 122.279 9.86957 121.898 9.86957 121.5V91.5C9.86957 91.1022 10.0253 90.7206 10.3025 90.4393C10.5798 90.158 10.9558 90 11.3478 90C11.7399 90 12.1159 90.158 12.3931 90.4393C12.6703 90.7206 12.8261 91.1022 12.8261 91.5V121.5C12.8261 121.898 12.6703 122.279 12.3931 122.561C12.1159 122.842 11.7399 123 11.3478 123ZM17.2609 117C16.8688 117 16.4928 116.842 16.2156 116.561C15.9384 116.279 15.7826 115.898 15.7826 115.5V91.5C15.7826 91.1022 15.9384 90.7206 16.2156 90.4393C16.4928 90.158 16.8688 90 17.2609 90C17.6529 90 18.0289 90.158 18.3062 90.4393C18.5834 90.7206 18.7391 91.1022 18.7391 91.5V115.5C18.7391 115.898 18.5834 116.279 18.3062 116.561C18.0289 116.842 17.6529 117 17.2609 117ZM23.1739 117C22.7819 117 22.4059 116.842 22.1286 116.561C21.8514 116.279 21.6957 115.898 21.6957 115.5V91.5C21.6957 91.1022 21.8514 90.7206 22.1286 90.4393C22.4059 90.158 22.7819 90 23.1739 90C23.566 90 23.942 90.158 24.2192 90.4393C24.4964 90.7206 24.6522 91.1022 24.6522 91.5V115.5C24.6522 115.898 24.4964 116.279 24.2192 116.561C23.942 116.842 23.566 117 23.1739 117ZM29.087 117C28.6949 117 28.3189 116.842 28.0417 116.561C27.7644 116.279 27.6087 115.898 27.6087 115.5V91.5C27.6087 91.1022 27.7644 90.7206 28.0417 90.4393C28.3189 90.158 28.6949 90 29.087 90C29.479 90 29.855 90.158 30.1322 90.4393C30.4095 90.7206 30.5652 91.1022 30.5652 91.5V115.5C30.5652 115.898 30.4095 116.279 30.1322 116.561C29.855 116.842 29.479 117 29.087 117ZM35 123C34.6079 123 34.2319 122.842 33.9547 122.561C33.6775 122.279 33.5217 121.898 33.5217 121.5V91.5C33.5217 91.1022 33.6775 90.7206 33.9547 90.4393C34.2319 90.158 34.6079 90 35 90C35.3921 90 35.7681 90.158 36.0453 90.4393C36.3225 90.7206 36.4783 91.1022 36.4783 91.5V121.5C36.4783 121.898 36.3225 122.279 36.0453 122.561C35.7681 122.842 35.3921 123 35 123ZM40.913 117C40.521 117 40.145 116.842 39.8678 116.561C39.5905 116.279 39.4348 115.898 39.4348 115.5V91.5C39.4348 91.1022 39.5905 90.7206 39.8678 90.4393C40.145 90.158 40.521 90 40.913 90C41.3051 90 41.6811 90.158 41.9583 90.4393C42.2356 90.7206 42.3913 91.1022 42.3913 91.5V115.5C42.3913 115.898 42.2356 116.279 41.9583 116.561C41.6811 116.842 41.3051 117 40.913 117ZM46.8261 117C46.434 117 46.058 116.842 45.7808 116.561C45.5036 116.279 45.3478 115.898 45.3478 115.5V91.5C45.3478 91.1022 45.5036 90.7206 45.7808 90.4393C46.058 90.158 46.434 90 46.8261 90C47.2181 90 47.5942 90.158 47.8714 90.4393C48.1486 90.7206 48.3043 91.1022 48.3043 91.5V115.5C48.3043 115.898 48.1486 116.279 47.8714 116.561C47.5942 116.842 47.2181 117 46.8261 117ZM52.7391 117C52.3471 117 51.9711 116.842 51.6938 116.561C51.4166 116.279 51.2609 115.898 51.2609 115.5V91.5C51.2609 91.1022 51.4166 90.7206 51.6938 90.4393C51.9711 90.158 52.3471 90 52.7391 90C53.1312 90 53.5072 90.158 53.7844 90.4393C54.0616 90.7206 54.2174 91.1022 54.2174 91.5V115.5C54.2174 115.898 54.0616 116.279 53.7844 116.561C53.5072 116.842 53.1312 117 52.7391 117ZM58.6522 123C58.2601 123 57.8841 122.842 57.6069 122.561C57.3297 122.279 57.1739 121.898 57.1739 121.5V91.5C57.1739 91.1022 57.3297 90.7206 57.6069 90.4393C57.8841 90.158 58.2601 90 58.6522 90C59.0442 90 59.4202 90.158 59.6975 90.4393C59.9747 90.7206 60.1304 91.1022 60.1304 91.5V121.5C60.1304 121.898 59.9747 122.279 59.6975 122.561C59.4202 122.842 59.0442 123 58.6522 123ZM17.2609 123C17.067 123.002 16.8748 122.964 16.6966 122.886C16.5183 122.809 16.3581 122.694 16.2261 122.55C16.0841 122.416 15.9712 122.253 15.8949 122.073C15.8185 121.892 15.7802 121.697 15.7826 121.5C15.8064 121.119 15.9725 120.761 16.2471 120.499C16.5217 120.238 16.8842 120.092 17.2609 120.092C17.6375 120.092 18 120.238 18.2746 120.499C18.5493 120.761 18.7153 121.119 18.7391 121.5C18.7391 121.89 18.5913 122.28 18.2957 122.55C18.1637 122.694 18.0034 122.809 17.8252 122.886C17.647 122.964 17.4547 123.002 17.2609 123ZM23.1739 123C22.7896 123 22.4348 122.85 22.1391 122.58C21.861 122.299 21.7022 121.919 21.6967 121.521C21.6912 121.123 21.8394 120.739 22.1096 120.45C22.7304 119.85 23.6765 119.88 24.2087 120.45C24.5043 120.72 24.6522 121.11 24.6522 121.5C24.6522 121.89 24.5043 122.28 24.2087 122.55C24.0767 122.694 23.9164 122.809 23.7382 122.886C23.56 122.964 23.3678 123.002 23.1739 123ZM29.087 123C28.8931 123.002 28.7009 122.964 28.5226 122.886C28.3444 122.809 28.1842 122.694 28.0522 122.55C27.9102 122.416 27.7973 122.253 27.7209 122.073C27.6446 121.892 27.6063 121.697 27.6087 121.5C27.6064 121.109 27.7549 120.732 28.0226 120.45C28.5843 119.88 29.5896 119.88 30.1217 120.45C30.4174 120.72 30.5652 121.11 30.5652 121.5C30.5652 121.89 30.4174 122.28 30.1217 122.55C29.9897 122.694 29.8295 122.809 29.6513 122.886C29.4731 122.964 29.2808 123.002 29.087 123ZM40.913 123C40.5287 123 40.1739 122.85 39.8783 122.58C39.6001 122.299 39.4413 121.919 39.4358 121.521C39.4303 121.123 39.5785 120.739 39.8487 120.45C40.4696 119.85 41.4157 119.88 41.9478 120.45C42.2435 120.72 42.3913 121.11 42.3913 121.5C42.3913 121.89 42.2435 122.28 41.9478 122.55C41.8158 122.694 41.6556 122.809 41.4774 122.886C41.2991 122.964 41.1069 123.002 40.913 123ZM46.8261 123C46.6322 123.002 46.44 122.964 46.2618 122.886C46.0836 122.809 45.9233 122.694 45.7913 122.55C45.6493 122.416 45.5365 122.253 45.4601 122.073C45.3837 121.892 45.3455 121.697 45.3478 121.5C45.3716 121.119 45.5377 120.761 45.8123 120.499C46.0869 120.238 46.4494 120.092 46.8261 120.092C47.2027 120.092 47.5652 120.238 47.8399 120.499C48.1145 120.761 48.2806 121.119 48.3043 121.5C48.3043 121.89 48.1565 122.28 47.8609 122.55C47.7289 122.694 47.5686 122.809 47.3904 122.886C47.2122 122.964 47.02 123.002 46.8261 123ZM52.7391 123C52.3548 123 52 122.85 51.7043 122.58C51.4253 122.291 51.2665 121.904 51.2609 121.5C51.2586 121.109 51.4071 120.732 51.6748 120.45C52.2957 119.85 53.2417 119.88 53.7739 120.45C54.0696 120.72 54.2174 121.11 54.2174 121.5C54.2174 121.89 54.0696 122.28 53.7739 122.55C53.6419 122.694 53.4817 122.809 53.3034 122.886C53.1252 122.964 52.933 123.002 52.7391 123ZM2.47826 93C2.0862 93 1.7102 92.842 1.43297 92.5607C1.15574 92.2794 1 91.8978 1 91.5V82.5C1 82.1022 1.15574 81.7206 1.43297 81.4393C1.7102 81.158 2.0862 81 2.47826 81H11.3478C11.7399 81 12.1159 81.158 12.3931 81.4393C12.6703 81.7206 12.8261 82.1022 12.8261 82.5C12.8261 82.8978 12.6703 83.2794 12.3931 83.5607C12.1159 83.842 11.7399 84 11.3478 84H3.95652V91.5C3.95652 91.8978 3.80078 92.2794 3.52355 92.5607C3.24632 92.842 2.87032 93 2.47826 93ZM11.3478 132H2.47826C2.0862 132 1.7102 131.842 1.43297 131.561C1.15574 131.279 1 130.898 1 130.5V121.5C1 121.102 1.15574 120.721 1.43297 120.439C1.7102 120.158 2.0862 120 2.47826 120C2.87032 120 3.24632 120.158 3.52355 120.439C3.80078 120.721 3.95652 121.102 3.95652 121.5V129H11.3478C11.7399 129 12.1159 129.158 12.3931 129.439C12.6703 129.721 12.8261 130.102 12.8261 130.5C12.8261 130.898 12.6703 131.279 12.3931 131.561C12.1159 131.842 11.7399 132 11.3478 132ZM67.5217 93C67.1297 93 66.7537 92.842 66.4764 92.5607C66.1992 92.2794 66.0435 91.8978 66.0435 91.5V84H58.6522C58.2601 84 57.8841 83.842 57.6069 83.5607C57.3297 83.2794 57.1739 82.8978 57.1739 82.5C57.1739 82.1022 57.3297 81.7206 57.6069 81.4393C57.8841 81.158 58.2601 81 58.6522 81H67.5217C67.9138 81 68.2898 81.158 68.567 81.4393C68.8443 81.7206 69 82.1022 69 82.5V91.5C69 91.8978 68.8443 92.2794 68.567 92.5607C68.2898 92.842 67.9138 93 67.5217 93ZM67.5217 132H58.6522C58.2601 132 57.8841 131.842 57.6069 131.561C57.3297 131.279 57.1739 130.898 57.1739 130.5C57.1739 130.102 57.3297 129.721 57.6069 129.439C57.8841 129.158 58.2601 129 58.6522 129H66.0435V121.5C66.0435 121.102 66.1992 120.721 66.4764 120.439C66.7537 120.158 67.1297 120 67.5217 120C67.9138 120 68.2898 120.158 68.567 120.439C68.8443 120.721 69 121.102 69 121.5V130.5C69 130.898 68.8443 131.279 68.567 131.561C68.2898 131.842 67.9138 132 67.5217 132Z"/>
</mask>
<path d="M11.3478 123C10.9558 123 10.5798 122.842 10.3025 122.561C10.0253 122.279 9.86957 121.898 9.86957 121.5V91.5C9.86957 91.1022 10.0253 90.7206 10.3025 90.4393C10.5798 90.158 10.9558 90 11.3478 90C11.7399 90 12.1159 90.158 12.3931 90.4393C12.6703 90.7206 12.8261 91.1022 12.8261 91.5V121.5C12.8261 121.898 12.6703 122.279 12.3931 122.561C12.1159 122.842 11.7399 123 11.3478 123ZM17.2609 117C16.8688 117 16.4928 116.842 16.2156 116.561C15.9384 116.279 15.7826 115.898 15.7826 115.5V91.5C15.7826 91.1022 15.9384 90.7206 16.2156 90.4393C16.4928 90.158 16.8688 90 17.2609 90C17.6529 90 18.0289 90.158 18.3062 90.4393C18.5834 90.7206 18.7391 91.1022 18.7391 91.5V115.5C18.7391 115.898 18.5834 116.279 18.3062 116.561C18.0289 116.842 17.6529 117 17.2609 117ZM23.1739 117C22.7819 117 22.4059 116.842 22.1286 116.561C21.8514 116.279 21.6957 115.898 21.6957 115.5V91.5C21.6957 91.1022 21.8514 90.7206 22.1286 90.4393C22.4059 90.158 22.7819 90 23.1739 90C23.566 90 23.942 90.158 24.2192 90.4393C24.4964 90.7206 24.6522 91.1022 24.6522 91.5V115.5C24.6522 115.898 24.4964 116.279 24.2192 116.561C23.942 116.842 23.566 117 23.1739 117ZM29.087 117C28.6949 117 28.3189 116.842 28.0417 116.561C27.7644 116.279 27.6087 115.898 27.6087 115.5V91.5C27.6087 91.1022 27.7644 90.7206 28.0417 90.4393C28.3189 90.158 28.6949 90 29.087 90C29.479 90 29.855 90.158 30.1322 90.4393C30.4095 90.7206 30.5652 91.1022 30.5652 91.5V115.5C30.5652 115.898 30.4095 116.279 30.1322 116.561C29.855 116.842 29.479 117 29.087 117ZM35 123C34.6079 123 34.2319 122.842 33.9547 122.561C33.6775 122.279 33.5217 121.898 33.5217 121.5V91.5C33.5217 91.1022 33.6775 90.7206 33.9547 90.4393C34.2319 90.158 34.6079 90 35 90C35.3921 90 35.7681 90.158 36.0453 90.4393C36.3225 90.7206 36.4783 91.1022 36.4783 91.5V121.5C36.4783 121.898 36.3225 122.279 36.0453 122.561C35.7681 122.842 35.3921 123 35 123ZM40.913 117C40.521 117 40.145 116.842 39.8678 116.561C39.5905 116.279 39.4348 115.898 39.4348 115.5V91.5C39.4348 91.1022 39.5905 90.7206 39.8678 90.4393C40.145 90.158 40.521 90 40.913 90C41.3051 90 41.6811 90.158 41.9583 90.4393C42.2356 90.7206 42.3913 91.1022 42.3913 91.5V115.5C42.3913 115.898 42.2356 116.279 41.9583 116.561C41.6811 116.842 41.3051 117 40.913 117ZM46.8261 117C46.434 117 46.058 116.842 45.7808 116.561C45.5036 116.279 45.3478 115.898 45.3478 115.5V91.5C45.3478 91.1022 45.5036 90.7206 45.7808 90.4393C46.058 90.158 46.434 90 46.8261 90C47.2181 90 47.5942 90.158 47.8714 90.4393C48.1486 90.7206 48.3043 91.1022 48.3043 91.5V115.5C48.3043 115.898 48.1486 116.279 47.8714 116.561C47.5942 116.842 47.2181 117 46.8261 117ZM52.7391 117C52.3471 117 51.9711 116.842 51.6938 116.561C51.4166 116.279 51.2609 115.898 51.2609 115.5V91.5C51.2609 91.1022 51.4166 90.7206 51.6938 90.4393C51.9711 90.158 52.3471 90 52.7391 90C53.1312 90 53.5072 90.158 53.7844 90.4393C54.0616 90.7206 54.2174 91.1022 54.2174 91.5V115.5C54.2174 115.898 54.0616 116.279 53.7844 116.561C53.5072 116.842 53.1312 117 52.7391 117ZM58.6522 123C58.2601 123 57.8841 122.842 57.6069 122.561C57.3297 122.279 57.1739 121.898 57.1739 121.5V91.5C57.1739 91.1022 57.3297 90.7206 57.6069 90.4393C57.8841 90.158 58.2601 90 58.6522 90C59.0442 90 59.4202 90.158 59.6975 90.4393C59.9747 90.7206 60.1304 91.1022 60.1304 91.5V121.5C60.1304 121.898 59.9747 122.279 59.6975 122.561C59.4202 122.842 59.0442 123 58.6522 123ZM17.2609 123C17.067 123.002 16.8748 122.964 16.6966 122.886C16.5183 122.809 16.3581 122.694 16.2261 122.55C16.0841 122.416 15.9712 122.253 15.8949 122.073C15.8185 121.892 15.7802 121.697 15.7826 121.5C15.8064 121.119 15.9725 120.761 16.2471 120.499C16.5217 120.238 16.8842 120.092 17.2609 120.092C17.6375 120.092 18 120.238 18.2746 120.499C18.5493 120.761 18.7153 121.119 18.7391 121.5C18.7391 121.89 18.5913 122.28 18.2957 122.55C18.1637 122.694 18.0034 122.809 17.8252 122.886C17.647 122.964 17.4547 123.002 17.2609 123ZM23.1739 123C22.7896 123 22.4348 122.85 22.1391 122.58C21.861 122.299 21.7022 121.919 21.6967 121.521C21.6912 121.123 21.8394 120.739 22.1096 120.45C22.7304 119.85 23.6765 119.88 24.2087 120.45C24.5043 120.72 24.6522 121.11 24.6522 121.5C24.6522 121.89 24.5043 122.28 24.2087 122.55C24.0767 122.694 23.9164 122.809 23.7382 122.886C23.56 122.964 23.3678 123.002 23.1739 123ZM29.087 123C28.8931 123.002 28.7009 122.964 28.5226 122.886C28.3444 122.809 28.1842 122.694 28.0522 122.55C27.9102 122.416 27.7973 122.253 27.7209 122.073C27.6446 121.892 27.6063 121.697 27.6087 121.5C27.6064 121.109 27.7549 120.732 28.0226 120.45C28.5843 119.88 29.5896 119.88 30.1217 120.45C30.4174 120.72 30.5652 121.11 30.5652 121.5C30.5652 121.89 30.4174 122.28 30.1217 122.55C29.9897 122.694 29.8295 122.809 29.6513 122.886C29.4731 122.964 29.2808 123.002 29.087 123ZM40.913 123C40.5287 123 40.1739 122.85 39.8783 122.58C39.6001 122.299 39.4413 121.919 39.4358 121.521C39.4303 121.123 39.5785 120.739 39.8487 120.45C40.4696 119.85 41.4157 119.88 41.9478 120.45C42.2435 120.72 42.3913 121.11 42.3913 121.5C42.3913 121.89 42.2435 122.28 41.9478 122.55C41.8158 122.694 41.6556 122.809 41.4774 122.886C41.2991 122.964 41.1069 123.002 40.913 123ZM46.8261 123C46.6322 123.002 46.44 122.964 46.2618 122.886C46.0836 122.809 45.9233 122.694 45.7913 122.55C45.6493 122.416 45.5365 122.253 45.4601 122.073C45.3837 121.892 45.3455 121.697 45.3478 121.5C45.3716 121.119 45.5377 120.761 45.8123 120.499C46.0869 120.238 46.4494 120.092 46.8261 120.092C47.2027 120.092 47.5652 120.238 47.8399 120.499C48.1145 120.761 48.2806 121.119 48.3043 121.5C48.3043 121.89 48.1565 122.28 47.8609 122.55C47.7289 122.694 47.5686 122.809 47.3904 122.886C47.2122 122.964 47.02 123.002 46.8261 123ZM52.7391 123C52.3548 123 52 122.85 51.7043 122.58C51.4253 122.291 51.2665 121.904 51.2609 121.5C51.2586 121.109 51.4071 120.732 51.6748 120.45C52.2957 119.85 53.2417 119.88 53.7739 120.45C54.0696 120.72 54.2174 121.11 54.2174 121.5C54.2174 121.89 54.0696 122.28 53.7739 122.55C53.6419 122.694 53.4817 122.809 53.3034 122.886C53.1252 122.964 52.933 123.002 52.7391 123ZM2.47826 93C2.0862 93 1.7102 92.842 1.43297 92.5607C1.15574 92.2794 1 91.8978 1 91.5V82.5C1 82.1022 1.15574 81.7206 1.43297 81.4393C1.7102 81.158 2.0862 81 2.47826 81H11.3478C11.7399 81 12.1159 81.158 12.3931 81.4393C12.6703 81.7206 12.8261 82.1022 12.8261 82.5C12.8261 82.8978 12.6703 83.2794 12.3931 83.5607C12.1159 83.842 11.7399 84 11.3478 84H3.95652V91.5C3.95652 91.8978 3.80078 92.2794 3.52355 92.5607C3.24632 92.842 2.87032 93 2.47826 93ZM11.3478 132H2.47826C2.0862 132 1.7102 131.842 1.43297 131.561C1.15574 131.279 1 130.898 1 130.5V121.5C1 121.102 1.15574 120.721 1.43297 120.439C1.7102 120.158 2.0862 120 2.47826 120C2.87032 120 3.24632 120.158 3.52355 120.439C3.80078 120.721 3.95652 121.102 3.95652 121.5V129H11.3478C11.7399 129 12.1159 129.158 12.3931 129.439C12.6703 129.721 12.8261 130.102 12.8261 130.5C12.8261 130.898 12.6703 131.279 12.3931 131.561C12.1159 131.842 11.7399 132 11.3478 132ZM67.5217 93C67.1297 93 66.7537 92.842 66.4764 92.5607C66.1992 92.2794 66.0435 91.8978 66.0435 91.5V84H58.6522C58.2601 84 57.8841 83.842 57.6069 83.5607C57.3297 83.2794 57.1739 82.8978 57.1739 82.5C57.1739 82.1022 57.3297 81.7206 57.6069 81.4393C57.8841 81.158 58.2601 81 58.6522 81H67.5217C67.9138 81 68.2898 81.158 68.567 81.4393C68.8443 81.7206 69 82.1022 69 82.5V91.5C69 91.8978 68.8443 92.2794 68.567 92.5607C68.2898 92.842 67.9138 93 67.5217 93ZM67.5217 132H58.6522C58.2601 132 57.8841 131.842 57.6069 131.561C57.3297 131.279 57.1739 130.898 57.1739 130.5C57.1739 130.102 57.3297 129.721 57.6069 129.439C57.8841 129.158 58.2601 129 58.6522 129H66.0435V121.5C66.0435 121.102 66.1992 120.721 66.4764 120.439C66.7537 120.158 67.1297 120 67.5217 120C67.9138 120 68.2898 120.158 68.567 120.439C68.8443 120.721 69 121.102 69 121.5V130.5C69 130.898 68.8443 131.279 68.567 131.561C68.2898 131.842 67.9138 132 67.5217 132Z" fill="#07071E"/>
<path d="M11.3478 123C10.9558 123 10.5798 122.842 10.3025 122.561C10.0253 122.279 9.86957 121.898 9.86957 121.5V91.5C9.86957 91.1022 10.0253 90.7206 10.3025 90.4393C10.5798 90.158 10.9558 90 11.3478 90C11.7399 90 12.1159 90.158 12.3931 90.4393C12.6703 90.7206 12.8261 91.1022 12.8261 91.5V121.5C12.8261 121.898 12.6703 122.279 12.3931 122.561C12.1159 122.842 11.7399 123 11.3478 123ZM17.2609 117C16.8688 117 16.4928 116.842 16.2156 116.561C15.9384 116.279 15.7826 115.898 15.7826 115.5V91.5C15.7826 91.1022 15.9384 90.7206 16.2156 90.4393C16.4928 90.158 16.8688 90 17.2609 90C17.6529 90 18.0289 90.158 18.3062 90.4393C18.5834 90.7206 18.7391 91.1022 18.7391 91.5V115.5C18.7391 115.898 18.5834 116.279 18.3062 116.561C18.0289 116.842 17.6529 117 17.2609 117ZM23.1739 117C22.7819 117 22.4059 116.842 22.1286 116.561C21.8514 116.279 21.6957 115.898 21.6957 115.5V91.5C21.6957 91.1022 21.8514 90.7206 22.1286 90.4393C22.4059 90.158 22.7819 90 23.1739 90C23.566 90 23.942 90.158 24.2192 90.4393C24.4964 90.7206 24.6522 91.1022 24.6522 91.5V115.5C24.6522 115.898 24.4964 116.279 24.2192 116.561C23.942 116.842 23.566 117 23.1739 117ZM29.087 117C28.6949 117 28.3189 116.842 28.0417 116.561C27.7644 116.279 27.6087 115.898 27.6087 115.5V91.5C27.6087 91.1022 27.7644 90.7206 28.0417 90.4393C28.3189 90.158 28.6949 90 29.087 90C29.479 90 29.855 90.158 30.1322 90.4393C30.4095 90.7206 30.5652 91.1022 30.5652 91.5V115.5C30.5652 115.898 30.4095 116.279 30.1322 116.561C29.855 116.842 29.479 117 29.087 117ZM35 123C34.6079 123 34.2319 122.842 33.9547 122.561C33.6775 122.279 33.5217 121.898 33.5217 121.5V91.5C33.5217 91.1022 33.6775 90.7206 33.9547 90.4393C34.2319 90.158 34.6079 90 35 90C35.3921 90 35.7681 90.158 36.0453 90.4393C36.3225 90.7206 36.4783 91.1022 36.4783 91.5V121.5C36.4783 121.898 36.3225 122.279 36.0453 122.561C35.7681 122.842 35.3921 123 35 123ZM40.913 117C40.521 117 40.145 116.842 39.8678 116.561C39.5905 116.279 39.4348 115.898 39.4348 115.5V91.5C39.4348 91.1022 39.5905 90.7206 39.8678 90.4393C40.145 90.158 40.521 90 40.913 90C41.3051 90 41.6811 90.158 41.9583 90.4393C42.2356 90.7206 42.3913 91.1022 42.3913 91.5V115.5C42.3913 115.898 42.2356 116.279 41.9583 116.561C41.6811 116.842 41.3051 117 40.913 117ZM46.8261 117C46.434 117 46.058 116.842 45.7808 116.561C45.5036 116.279 45.3478 115.898 45.3478 115.5V91.5C45.3478 91.1022 45.5036 90.7206 45.7808 90.4393C46.058 90.158 46.434 90 46.8261 90C47.2181 90 47.5942 90.158 47.8714 90.4393C48.1486 90.7206 48.3043 91.1022 48.3043 91.5V115.5C48.3043 115.898 48.1486 116.279 47.8714 116.561C47.5942 116.842 47.2181 117 46.8261 117ZM52.7391 117C52.3471 117 51.9711 116.842 51.6938 116.561C51.4166 116.279 51.2609 115.898 51.2609 115.5V91.5C51.2609 91.1022 51.4166 90.7206 51.6938 90.4393C51.9711 90.158 52.3471 90 52.7391 90C53.1312 90 53.5072 90.158 53.7844 90.4393C54.0616 90.7206 54.2174 91.1022 54.2174 91.5V115.5C54.2174 115.898 54.0616 116.279 53.7844 116.561C53.5072 116.842 53.1312 117 52.7391 117ZM58.6522 123C58.2601 123 57.8841 122.842 57.6069 122.561C57.3297 122.279 57.1739 121.898 57.1739 121.5V91.5C57.1739 91.1022 57.3297 90.7206 57.6069 90.4393C57.8841 90.158 58.2601 90 58.6522 90C59.0442 90 59.4202 90.158 59.6975 90.4393C59.9747 90.7206 60.1304 91.1022 60.1304 91.5V121.5C60.1304 121.898 59.9747 122.279 59.6975 122.561C59.4202 122.842 59.0442 123 58.6522 123ZM17.2609 123C17.067 123.002 16.8748 122.964 16.6966 122.886C16.5183 122.809 16.3581 122.694 16.2261 122.55C16.0841 122.416 15.9712 122.253 15.8949 122.073C15.8185 121.892 15.7802 121.697 15.7826 121.5C15.8064 121.119 15.9725 120.761 16.2471 120.499C16.5217 120.238 16.8842 120.092 17.2609 120.092C17.6375 120.092 18 120.238 18.2746 120.499C18.5493 120.761 18.7153 121.119 18.7391 121.5C18.7391 121.89 18.5913 122.28 18.2957 122.55C18.1637 122.694 18.0034 122.809 17.8252 122.886C17.647 122.964 17.4547 123.002 17.2609 123ZM23.1739 123C22.7896 123 22.4348 122.85 22.1391 122.58C21.861 122.299 21.7022 121.919 21.6967 121.521C21.6912 121.123 21.8394 120.739 22.1096 120.45C22.7304 119.85 23.6765 119.88 24.2087 120.45C24.5043 120.72 24.6522 121.11 24.6522 121.5C24.6522 121.89 24.5043 122.28 24.2087 122.55C24.0767 122.694 23.9164 122.809 23.7382 122.886C23.56 122.964 23.3678 123.002 23.1739 123ZM29.087 123C28.8931 123.002 28.7009 122.964 28.5226 122.886C28.3444 122.809 28.1842 122.694 28.0522 122.55C27.9102 122.416 27.7973 122.253 27.7209 122.073C27.6446 121.892 27.6063 121.697 27.6087 121.5C27.6064 121.109 27.7549 120.732 28.0226 120.45C28.5843 119.88 29.5896 119.88 30.1217 120.45C30.4174 120.72 30.5652 121.11 30.5652 121.5C30.5652 121.89 30.4174 122.28 30.1217 122.55C29.9897 122.694 29.8295 122.809 29.6513 122.886C29.4731 122.964 29.2808 123.002 29.087 123ZM40.913 123C40.5287 123 40.1739 122.85 39.8783 122.58C39.6001 122.299 39.4413 121.919 39.4358 121.521C39.4303 121.123 39.5785 120.739 39.8487 120.45C40.4696 119.85 41.4157 119.88 41.9478 120.45C42.2435 120.72 42.3913 121.11 42.3913 121.5C42.3913 121.89 42.2435 122.28 41.9478 122.55C41.8158 122.694 41.6556 122.809 41.4774 122.886C41.2991 122.964 41.1069 123.002 40.913 123ZM46.8261 123C46.6322 123.002 46.44 122.964 46.2618 122.886C46.0836 122.809 45.9233 122.694 45.7913 122.55C45.6493 122.416 45.5365 122.253 45.4601 122.073C45.3837 121.892 45.3455 121.697 45.3478 121.5C45.3716 121.119 45.5377 120.761 45.8123 120.499C46.0869 120.238 46.4494 120.092 46.8261 120.092C47.2027 120.092 47.5652 120.238 47.8399 120.499C48.1145 120.761 48.2806 121.119 48.3043 121.5C48.3043 121.89 48.1565 122.28 47.8609 122.55C47.7289 122.694 47.5686 122.809 47.3904 122.886C47.2122 122.964 47.02 123.002 46.8261 123ZM52.7391 123C52.3548 123 52 122.85 51.7043 122.58C51.4253 122.291 51.2665 121.904 51.2609 121.5C51.2586 121.109 51.4071 120.732 51.6748 120.45C52.2957 119.85 53.2417 119.88 53.7739 120.45C54.0696 120.72 54.2174 121.11 54.2174 121.5C54.2174 121.89 54.0696 122.28 53.7739 122.55C53.6419 122.694 53.4817 122.809 53.3034 122.886C53.1252 122.964 52.933 123.002 52.7391 123ZM2.47826 93C2.0862 93 1.7102 92.842 1.43297 92.5607C1.15574 92.2794 1 91.8978 1 91.5V82.5C1 82.1022 1.15574 81.7206 1.43297 81.4393C1.7102 81.158 2.0862 81 2.47826 81H11.3478C11.7399 81 12.1159 81.158 12.3931 81.4393C12.6703 81.7206 12.8261 82.1022 12.8261 82.5C12.8261 82.8978 12.6703 83.2794 12.3931 83.5607C12.1159 83.842 11.7399 84 11.3478 84H3.95652V91.5C3.95652 91.8978 3.80078 92.2794 3.52355 92.5607C3.24632 92.842 2.87032 93 2.47826 93ZM11.3478 132H2.47826C2.0862 132 1.7102 131.842 1.43297 131.561C1.15574 131.279 1 130.898 1 130.5V121.5C1 121.102 1.15574 120.721 1.43297 120.439C1.7102 120.158 2.0862 120 2.47826 120C2.87032 120 3.24632 120.158 3.52355 120.439C3.80078 120.721 3.95652 121.102 3.95652 121.5V129H11.3478C11.7399 129 12.1159 129.158 12.3931 129.439C12.6703 129.721 12.8261 130.102 12.8261 130.5C12.8261 130.898 12.6703 131.279 12.3931 131.561C12.1159 131.842 11.7399 132 11.3478 132ZM67.5217 93C67.1297 93 66.7537 92.842 66.4764 92.5607C66.1992 92.2794 66.0435 91.8978 66.0435 91.5V84H58.6522C58.2601 84 57.8841 83.842 57.6069 83.5607C57.3297 83.2794 57.1739 82.8978 57.1739 82.5C57.1739 82.1022 57.3297 81.7206 57.6069 81.4393C57.8841 81.158 58.2601 81 58.6522 81H67.5217C67.9138 81 68.2898 81.158 68.567 81.4393C68.8443 81.7206 69 82.1022 69 82.5V91.5C69 91.8978 68.8443 92.2794 68.567 92.5607C68.2898 92.842 67.9138 93 67.5217 93ZM67.5217 132H58.6522C58.2601 132 57.8841 131.842 57.6069 131.561C57.3297 131.279 57.1739 130.898 57.1739 130.5C57.1739 130.102 57.3297 129.721 57.6069 129.439C57.8841 129.158 58.2601 129 58.6522 129H66.0435V121.5C66.0435 121.102 66.1992 120.721 66.4764 120.439C66.7537 120.158 67.1297 120 67.5217 120C67.9138 120 68.2898 120.158 68.567 120.439C68.8443 120.721 69 121.102 69 121.5V130.5C69 130.898 68.8443 131.279 68.567 131.561C68.2898 131.842 67.9138 132 67.5217 132Z" stroke="#07071E" stroke-width="0.8" mask="url(#path-1-outside-1_1464_277282)"/>
<path d="M54.6201 33.1968L95.3468 4.50955C99.7157 1.42738 105.068 0.0661534 110.379 0.686779C115.69 1.3074 120.585 3.86622 124.126 7.87277C127.667 11.8793 129.605 17.0517 129.568 22.3985C129.532 27.7454 127.523 32.8905 123.928 36.8476L163.954 64.4773C164.175 64.6355 164.369 64.8282 164.528 65.048C164.546 65.0731 164.575 65.0837 164.593 65.1088L170.478 73.4637C170.868 74.0177 171.022 74.704 170.906 75.3716C170.791 76.0392 170.414 76.6334 169.86 77.0236L142.709 96.1484C142.155 96.5386 141.469 96.6927 140.801 96.5769C140.134 96.4611 139.54 96.0848 139.149 95.5308L125.84 76.636L110.339 65.8262L103.079 70.9398C102.525 71.33 101.839 71.4841 101.171 71.3683C100.504 71.2525 99.9096 70.8762 99.5194 70.3222L92.163 59.8785L79.6317 68.7054C79.0778 69.0955 78.3916 69.2497 77.724 69.1338C77.0564 69.018 76.4621 68.6417 76.0719 68.0878L54.0028 36.7566C53.6126 36.2027 53.4584 35.5164 53.5742 34.8488C53.6899 34.1812 54.0662 33.5869 54.6201 33.1968ZM119.947 40.308L101.409 53.3658L111.672 60.5277L111.712 60.5529L135.337 77.0314C136.691 77.839 138.26 78.2116 139.832 78.0988C141.405 77.986 142.905 77.3933 144.13 76.4006L158.039 66.6029L119.947 40.308ZM164.831 74.3194L161.888 70.1419L147.072 80.5781C145.567 81.661 143.859 82.43 142.051 82.8395C140.243 83.2489 138.37 83.2904 136.545 82.9615L141.857 90.5019L164.831 74.3194ZM102.225 65.2912L105.88 62.7167L96.9667 56.4949L96.3401 56.9363L102.225 65.2912ZM78.7777 63.0567L117.416 35.8407C121.016 33.3046 123.462 29.4419 124.214 25.1025C124.967 20.763 123.965 16.3023 121.428 12.7015C118.892 9.10066 115.029 6.65481 110.69 5.90196C106.35 5.14911 101.89 6.15093 98.2894 8.68704L59.6512 35.9031L78.7777 63.0567ZM50.85 48.1402C50.9593 47.8194 51.1314 47.5236 51.3562 47.27C51.581 47.0164 51.854 46.81 52.1593 46.663C52.4647 46.5159 52.7962 46.4311 53.1346 46.4134C53.4731 46.3957 53.8116 46.4456 54.1306 46.56C54.4496 46.6745 54.7427 46.8512 54.9927 47.0801C55.2427 47.3089 55.4447 47.5851 55.587 47.8928C55.7292 48.2004 55.8088 48.5333 55.8211 48.8719C55.8335 49.2106 55.7783 49.5484 55.6588 49.8655C55.1785 51.2581 55.0211 52.7417 55.1986 54.2041C55.376 55.6665 55.8837 57.0694 56.6831 58.3068C57.5706 59.4852 58.7189 60.4422 60.038 61.1027C61.3571 61.7632 62.8112 62.1093 64.2864 62.1139C64.6252 62.1082 64.9618 62.17 65.2766 62.2957C65.5913 62.4214 65.8779 62.6084 66.1197 62.8459C66.3615 63.0834 66.5536 63.3667 66.6848 63.6792C66.8161 63.9916 66.8838 64.3271 66.8842 64.666C66.8845 65.0049 66.8174 65.3405 66.6868 65.6532C66.5562 65.9659 66.3647 66.2495 66.1234 66.4875C65.8821 66.7254 65.5959 66.913 65.2814 67.0393C64.9669 67.1655 64.6304 67.228 64.2915 67.2229C61.9962 67.222 59.7332 66.6807 57.6858 65.6429C55.6383 64.6051 53.8639 63.0999 52.506 61.249C51.2316 59.3423 50.4184 57.1652 50.131 54.8899C49.8436 52.6146 50.0897 50.3037 50.85 48.1402Z" fill="#07071E"/>
</svg>
