<svg width="220" height="168" viewBox="0 0 220 168" fill="none" xmlns="http://www.w3.org/2000/svg">
<path d="M124.577 139.331C150.372 132.171 165.478 105.456 158.317 79.6614C151.157 53.867 124.442 38.7611 98.6478 45.9214C72.8534 53.0817 57.7475 79.7967 64.9078 105.591C72.0681 131.385 98.7831 146.491 124.577 139.331Z" fill="#EDEEF5"/>
<path d="M168.214 90.5602C169.578 90.2327 171.027 90.2918 172.317 90.8445C173.945 91.5421 175.103 92.8121 175.379 94.1811C175.907 96.8077 173.296 100.338 169.096 100.419L130.99 99.4937L168.214 90.5602Z" fill="#111574" stroke="#07071E" stroke-width="2" stroke-linecap="round" stroke-linejoin="round"/>
<path d="M203.582 63.65C203.519 69.5401 182.666 82.584 182.666 82.584C169.704 90.6986 164.112 92.8661 159.922 94.1921C157.365 95.0016 155.055 95.58 153.12 95.9961C152.626 97.3311 152.205 98.6923 151.86 100.073C151.411 101.866 151.087 103.688 150.892 105.526L130.24 106.075C130.516 101.147 131.421 96.2756 132.935 91.5784C134.882 85.5807 136.714 79.9251 141.822 76.299C144.377 74.4805 147.028 73.7287 149.243 73.3348C152.99 72.6695 156.649 71.5797 160.149 70.0864C161.292 69.6084 162.404 69.0591 163.478 68.442L163.483 68.4406C165.296 67.3958 167.026 66.1479 171.556 63.5815C182.503 57.3722 186.721 56.6589 190.157 57.9395C190.72 58.1474 191.261 58.4092 191.773 58.7212L191.572 58.7928C193.402 58.227 195.309 57.8238 197.07 57.8029C199.255 57.7748 199.764 58.4537 199.917 58.7213C200.384 59.5537 199.792 60.696 199.581 61.0701L199.364 61.1409C201.095 60.7868 202.233 60.912 202.92 61.6047C203.595 62.2743 203.584 63.2972 203.582 63.65Z" fill="#E4BF3C"/>
<path d="M177.005 72.1819C184.302 66.6462 192.643 62.643 201.527 60.4128" stroke="#07071E" stroke-width="2" stroke-miterlimit="10"/>
<path d="M171.462 70.1475C177.998 65.0237 185.271 60.9174 193.034 57.9676" stroke="#07071E" stroke-width="2" stroke-miterlimit="10"/>
<path d="M130.243 106.072C130.516 101.145 131.422 96.2723 132.937 91.5754C134.882 85.5777 136.714 79.9255 141.82 76.2978C145.451 73.7187 149.261 73.2851 151.754 72.9712C158.27 72.15 159.521 74.3217 166.281 74.6314C177.743 75.1561 184.972 69.4066 187.897 72.8901C188.71 73.8595 188.752 75.0208 188.762 75.3121C188.973 81.2398 175.989 86.1221 169.576 87.8509C166.278 88.7391 162.897 89.288 159.486 89.489" fill="#E4BF3C"/>
<path d="M151.754 72.9712C158.27 72.1501 159.521 74.3217 166.281 74.6315C177.743 75.1561 184.972 69.4067 187.896 72.8901C188.71 73.8595 188.752 75.0208 188.762 75.3122C188.973 81.2399 175.989 86.1222 169.576 87.851C166.278 88.7392 162.897 89.288 159.486 89.489" stroke="#07071E" stroke-width="2" stroke-miterlimit="10"/>
<path d="M133.642 126.202C131.777 121.392 129.873 114.431 130.24 106.075C130.338 103.866 130.589 101.667 130.991 99.4935C150.776 100.358 165.358 100.441 169.097 100.419C170.158 100.412 171.829 100.142 173.249 98.9639C174.66 97.7924 175.203 96.1738 175.437 95.1725L174.535 131.032" fill="#1626BA"/>
<path d="M175.208 104.255C171.256 106.815 166.618 108.111 161.91 107.971L130.208 107.027" stroke="#E4BF3C" stroke-width="2" stroke-miterlimit="10"/>
<path d="M130.99 99.4937L169.097 100.419C170.603 100.405 172.063 99.8935 173.249 98.9639C174.852 97.6942 175.389 96.0974 175.439 95.1141C175.438 95.1333 175.438 95.1527 175.437 95.1722" stroke="#07071E" stroke-width="2" stroke-miterlimit="10"/>
<path d="M62.9178 119.79C61.5798 120.212 60.3691 121.01 59.5487 122.148C58.5131 123.585 58.1753 125.27 58.6448 126.586C59.5456 129.109 63.6031 130.788 67.2434 128.692L99.42 108.257L62.9178 119.79Z" fill="#111574" stroke="#07071E" stroke-width="2" stroke-linecap="round" stroke-linejoin="round"/>
<path d="M18.7388 114.961C21.8291 119.976 46.4217 120.404 46.4217 120.404C61.7124 120.676 67.6212 119.651 71.8953 118.628C74.5033 118.003 76.7813 117.308 78.6539 116.667C79.7657 117.556 80.8278 118.506 81.8355 119.512C83.1443 120.817 84.3606 122.211 85.4756 123.685L103.455 113.51C100.679 109.43 97.3918 105.722 93.6733 102.477C88.9134 98.3412 84.4287 94.439 78.1824 93.9648C75.0555 93.7235 72.396 94.446 70.2954 95.2499C66.7415 96.6113 63.0443 97.5636 59.275 98.0883C58.0492 98.2678 56.8133 98.3703 55.5747 98.3952L55.5697 98.3966C53.4774 98.4358 51.3516 98.2584 46.1475 98.3938C33.5663 98.7157 29.5839 100.279 27.2993 103.147C26.9246 103.616 26.5959 104.119 26.3179 104.65L26.527 104.608C24.667 105.066 22.825 105.704 21.3055 106.594C19.419 107.696 19.3327 108.54 19.3393 108.848C19.3677 109.802 20.4642 110.476 20.8382 110.687L21.0606 110.636C19.3945 111.225 18.4834 111.919 18.252 112.867C18.019 113.789 18.5553 114.66 18.7388 114.961Z" fill="#E4BF3C"/>
<path d="M45.9113 108.573C36.8048 107.59 27.5937 108.46 18.8316 111.128" stroke="#07071E" stroke-width="2" stroke-miterlimit="10"/>
<path d="M49.6128 103.972C41.3709 102.95 33.0219 103.18 24.8487 104.654" stroke="#07071E" stroke-width="2" stroke-miterlimit="10"/>
<path d="M103.452 113.51C100.678 109.428 97.3904 105.719 93.6705 102.476C88.9126 98.3384 84.429 94.4394 78.1833 93.963C73.7429 93.6243 70.2543 95.2168 67.9566 96.2326C61.9493 98.8879 61.997 101.394 56.3641 105.143C46.812 111.502 37.654 110.301 36.9436 114.793C36.7459 116.044 37.3091 117.06 37.4504 117.315C40.3254 122.503 53.968 119.994 60.3541 118.17C63.6387 117.231 66.8188 115.958 69.8448 114.373" fill="#E4BF3C"/>
<path d="M67.9565 96.2326C61.9492 98.888 61.9969 101.394 56.364 105.143C46.8119 111.502 37.6539 110.301 36.9435 114.793C36.7458 116.044 37.309 117.06 37.4503 117.315C40.3253 122.503 53.9679 119.994 60.354 118.17C63.6386 117.231 66.8187 115.958 69.8447 114.373" stroke="#07071E" stroke-width="2" stroke-miterlimit="10"/>
<path d="M110.915 132.51C110.034 127.428 108.078 120.481 103.455 113.51C102.233 111.668 100.885 109.913 99.4196 108.257C82.9109 119.197 70.4586 126.784 67.243 128.692C66.3305 129.233 64.7594 129.864 62.9355 129.586C61.1224 129.309 59.8221 128.202 59.1058 127.465L78.3623 157.728" fill="#1626BA"/>
<path d="M63.9832 135.13C68.6899 135.287 73.3327 134.007 77.2941 131.46L103.973 114.31" stroke="#E4BF3C" stroke-width="2" stroke-miterlimit="10"/>
<path d="M99.4199 108.257L67.2433 128.692C65.9453 129.457 64.4309 129.771 62.9357 129.586C60.9071 129.324 59.6242 128.233 59.074 127.416C59.0848 127.432 59.0953 127.448 59.106 127.465" stroke="#07071E" stroke-width="2" stroke-miterlimit="10"/>
<path d="M146.987 58.0644C145.855 55.8958 142.286 48.4054 144.192 38.7875C146.274 28.2821 153.449 22.5058 155.262 21.1284L131.372 16.6816C130.364 16.4926 129.325 16.5484 128.343 16.8443C127.361 17.1402 126.464 17.6675 125.728 18.3819C122.854 21.1802 118.767 26.2719 117.279 33.778C115.373 43.3959 118.942 50.8862 120.074 53.0549L146.987 58.0644Z" fill="#CBD3EE"/>
<path d="M81.8783 28.8611C75.5442 28.2207 69.2093 30.4265 64.2808 34.6877L64.0681 34.8677C59.175 39.006 56.03 44.8109 55.6182 51.0708C55.0353 59.9369 60.0102 68.5016 67.5058 72.5788C74.6357 76.4649 83.6357 76.0566 91.1725 71.7627C96.1861 78.0103 109.697 95.0435 111.273 96.9282C111.566 97.2784 111.927 97.5653 112.335 97.7714C112.742 97.9776 113.187 98.0987 113.643 98.1274C114.098 98.1561 114.555 98.0918 114.985 97.9384C115.415 97.7849 115.809 97.5456 116.144 97.235L116.194 97.1882C116.836 96.5915 117.221 95.7675 117.265 94.8917C117.309 94.0159 117.009 93.1575 116.43 92.4993C115.039 90.9189 99.9253 71.9202 96.281 67.4798C98.7191 64.5294 100.461 61.1722 101.422 57.6806C102.656 53.2006 102.611 48.4953 101.115 44.1535C98.3384 36.0851 90.718 29.7579 81.8783 28.8611ZM93.8116 59.5861C92.8134 61.5729 91.4237 63.3374 89.726 64.7732C88.0283 66.2091 86.0577 67.2867 83.9327 67.9412C78.0103 69.772 70.5432 68.4507 66.0747 63.1203C62.8099 59.2204 61.8662 54.0335 62.755 49.7655C63.5245 46.0627 65.7099 42.7081 68.8739 40.1184C71.9568 37.4248 75.6237 35.8296 79.4029 35.6855C83.7631 35.5142 88.7176 37.3086 92.0214 41.1756C96.5402 46.4634 96.6038 54.0464 93.8116 59.5861Z" fill="#1626BA"/>
<path d="M93.8117 59.5863C92.8135 61.5732 91.4238 63.3376 89.7261 64.7734C88.0284 66.2093 86.0578 67.2869 83.9328 67.9414C78.0104 69.7723 70.5433 68.4509 66.0748 63.1205C62.81 59.2207 61.8663 54.0338 62.7551 49.7658C63.5246 46.0629 65.71 42.7083 68.8741 40.1186C71.9569 37.425 75.6238 35.8299 79.403 35.6857C83.7633 35.5144 88.7177 37.3088 92.0215 41.1759C96.5404 46.4637 96.604 54.0466 93.8117 59.5863Z" fill="#CBD3EE" stroke="#111574" stroke-width="2" stroke-linecap="round" stroke-linejoin="round"/>
</svg>
