<svg width="16" height="16" viewBox="0 0 16 16" fill="none" xmlns="http://www.w3.org/2000/svg">
<path fill-rule="evenodd" clip-rule="evenodd" d="M10.6033 3.8H10.4444C10.4444 3.32261 10.2513 2.86477 9.90747 2.52721C9.56366 2.18964 9.09734 2 8.61111 2H7.38889C6.90266 2 6.43634 2.18964 6.09253 2.52721C5.74871 2.86477 5.55556 3.32261 5.55556 3.8H3.11111C2.94903 3.8 2.7936 3.86321 2.67899 3.97574C2.56438 4.08826 2.5 4.24087 2.5 4.4C2.5 4.55913 2.56438 4.71174 2.67899 4.82426C2.7936 4.93679 2.94903 5 3.11111 5L2.67899 4.82426L3.72222 12.2C3.72222 12.6774 3.91538 13.1352 4.25919 13.4728C4.60301 13.8104 5.06933 14 5.55556 14H10.4444C10.9307 14 11.397 13.8104 11.7408 13.4728C12.0846 13.1352 12.2778 12.6774 12.2778 12.2L13.4717 4.58035L13.5 4.4L12.8889 5C13.051 5 13.2064 4.93679 13.321 4.82426C13.3911 4.75541 13.4425 4.67154 13.4717 4.58035C13.4903 4.52253 13.5 4.46175 13.5 4.4C13.5 4.24087 13.4356 4.08826 13.321 3.97574C13.2064 3.86321 13.051 3.8 12.8889 3.8H10.6033ZM12.0758 5H4.05169L4.94444 12.2C4.94444 12.3591 5.00883 12.5117 5.12344 12.6243C5.23804 12.7368 5.39348 12.8 5.55556 12.8H10.4444C10.6065 12.8 10.762 12.7368 10.8766 12.6243C10.9912 12.5117 11.0556 12.3591 11.0556 12.2L12.0758 5ZM6.77778 3.8H9.22222C9.22222 3.64087 9.15784 3.48826 9.04323 3.37574C8.92863 3.26321 8.77319 3.2 8.61111 3.2H7.38889C7.22681 3.2 7.07137 3.26321 6.95677 3.37574C6.84216 3.48826 6.77778 3.64087 6.77778 3.8ZM6.77778 6.2C6.93985 6.2 7.09529 6.26321 7.2099 6.37574C7.3245 6.48826 7.38889 6.64087 7.38889 6.8V11C7.38889 11.1591 7.3245 11.3117 7.2099 11.4243C7.09529 11.5368 6.93985 11.6 6.77778 11.6C6.6157 11.6 6.46026 11.5368 6.34566 11.4243C6.23105 11.3117 6.16667 11.1591 6.16667 11V6.8C6.16667 6.64087 6.23105 6.48826 6.34566 6.37574C6.46026 6.26321 6.6157 6.2 6.77778 6.2ZM9.83333 6.8C9.83333 6.64087 9.76895 6.48826 9.65434 6.37574C9.53974 6.26321 9.3843 6.2 9.22222 6.2C9.06015 6.2 8.90471 6.26321 8.7901 6.37574C8.6755 6.48826 8.61111 6.64087 8.61111 6.8V11C8.61111 11.1591 8.6755 11.3117 8.7901 11.4243C8.90471 11.5368 9.06015 11.6 9.22222 11.6C9.3843 11.6 9.53974 11.5368 9.65434 11.4243C9.76895 11.3117 9.83333 11.1591 9.83333 11V6.8Z" fill="#A7A7C2"/>
<path d="M2.67899 4.82426C2.7936 4.93679 2.94903 5 3.11111 5L2.67899 4.82426Z" fill="#A7A7C2"/>
<path d="M13.4717 4.58035L13.5 4.4L12.8889 5C13.051 5 13.2064 4.93679 13.321 4.82426C13.3911 4.75541 13.4425 4.67154 13.4717 4.58035Z" fill="#A7A7C2"/>
</svg>
