<svg xmlns="http://www.w3.org/2000/svg" width="14" height="14" viewBox="0 0 14 14" fill="none">
  <path d="M11.2292 10.209C11.3108 10.209 11.3908 10.1863 11.4601 10.1432C11.5294 10.1002 11.5854 10.0387 11.6216 9.96559C11.6578 9.89248 11.6728 9.8107 11.665 9.72949C11.6572 9.64828 11.6268 9.57088 11.5773 9.50602L7.34813 3.96436C7.3073 3.91076 7.25465 3.86732 7.19428 3.83741C7.1339 3.80751 7.06744 3.79195 7.00007 3.79195C6.93269 3.79195 6.86623 3.80751 6.80585 3.83741C6.74548 3.86732 6.69283 3.91076 6.652 3.96436L2.42284 9.50602C2.37335 9.57088 2.34298 9.64828 2.33516 9.72949C2.32733 9.8107 2.34237 9.89248 2.37857 9.96559C2.41477 10.0387 2.47069 10.1002 2.54002 10.1432C2.60935 10.1863 2.68932 10.209 2.7709 10.209H11.2292ZM10.3445 9.33398H3.65558L7.00007 4.95158L10.3445 9.33398Z" fill="#1EBB8C"/>
</svg>