<svg width="192" height="192" viewBox="0 0 192 192" fill="none" xmlns="http://www.w3.org/2000/svg">
<rect width="192" height="192" fill="white"/>
<path d="M17.2998 108.019L28.5927 79.5439H32.1934L43.4454 108.019H38.29L30.3931 86.4482L22.4962 108.019H17.2998ZM24.3374 102.054L25.8104 97.8462H34.9348L36.4896 102.054H24.3374Z" fill="#1626BA"/>
<path d="M50.5441 108.019L42.3199 87.878H47.3117L52.4263 102.136L57.6227 87.878H62.5326L54.3084 108.019H50.5441Z" fill="#1626BA"/>
<path d="M74.1385 108.386C72.4473 108.386 70.9743 108.114 69.7196 107.569C68.4921 107.025 67.4828 106.262 66.6917 105.282C65.9007 104.301 65.3142 103.198 64.9323 101.972C64.5504 100.72 64.3595 99.4259 64.3595 98.0913C64.3595 96.7568 64.5368 95.4631 64.8914 94.2103C65.2733 92.9302 65.8461 91.7863 66.6099 90.7786C67.3737 89.7709 68.3557 88.9811 69.5559 88.4091C70.7561 87.8099 72.1745 87.5103 73.8112 87.5103C75.366 87.5103 76.7163 87.7827 77.8619 88.3274C79.0349 88.8449 80.0032 89.5802 80.767 90.5335C81.5308 91.4595 82.09 92.5217 82.4446 93.72C82.8265 94.9184 83.0174 96.1985 83.0174 97.5603C83.0174 97.7509 83.0038 98.0233 82.9765 98.3773C82.9765 98.7314 82.9492 99.0854 82.8947 99.4395H68.9012C69.0103 101.046 69.5559 102.272 70.5379 103.116C71.5199 103.961 72.7746 104.383 74.3022 104.383C75.4206 104.383 76.4435 104.206 77.3709 103.852C78.2984 103.498 79.144 102.939 79.9078 102.177L82.4037 105.2C81.558 105.962 80.7124 106.575 79.8668 107.038C79.0212 107.501 78.1347 107.842 77.2073 108.06C76.3071 108.277 75.2842 108.386 74.1385 108.386ZM78.5575 97.1517C78.6121 96.9338 78.6393 96.716 78.6393 96.4981C78.6666 96.2802 78.6803 96.0623 78.6803 95.8444C78.6803 95.2452 78.5711 94.6733 78.3529 94.1286C78.162 93.5839 77.8619 93.1072 77.4528 92.6987C77.0436 92.2629 76.539 91.9225 75.9389 91.6774C75.3387 91.405 74.6568 91.2688 73.893 91.2688C72.8292 91.2688 71.929 91.5003 71.1925 91.9634C70.4833 92.4264 69.9241 93.0255 69.515 93.7609C69.1331 94.469 68.9012 95.2452 68.8194 96.0895H80.0305L78.5575 97.1517Z" fill="#1626BA"/>
<path d="M87.437 108.019V87.878H91.9787V92.331L91.1604 92.5353C91.515 91.3642 92.0333 90.4109 92.7152 89.6756C93.3972 88.9402 94.1882 88.3955 95.0884 88.0414C96.0158 87.6874 96.9842 87.5103 97.9935 87.5103C100.258 87.5103 102.017 88.164 103.272 89.4713C104.554 90.7514 105.195 92.5898 105.195 94.9865V108.019H100.653V96.6615C100.653 94.8639 100.326 93.543 99.671 92.6987C99.0164 91.8544 98.0071 91.4323 96.6432 91.4323C95.6339 91.4323 94.7747 91.6774 94.0655 92.1676C93.3835 92.6306 92.8653 93.366 92.5107 94.3737C92.1561 95.3814 91.9787 96.6615 91.9787 98.2139V108.019H87.437Z" fill="#1626BA"/>
<path d="M117.617 108.386C116.607 108.386 115.653 108.196 114.753 107.814C113.88 107.406 113.184 106.766 112.666 105.894C112.148 104.996 111.888 103.824 111.888 102.381V82.9756L116.471 80.4427V101.114C116.471 102.258 116.635 103.144 116.962 103.77C117.317 104.369 117.944 104.669 118.844 104.669C119.117 104.669 119.431 104.641 119.785 104.587C120.167 104.505 120.563 104.41 120.972 104.301V107.814C120.426 108.005 119.867 108.141 119.294 108.223C118.749 108.332 118.19 108.386 117.617 108.386ZM108.042 91.3914V87.878H120.972V91.3914H108.042Z" fill="#1626BA"/>
<path d="M124.996 108.019V87.878H129.538V108.019H124.996ZM124.792 84.5689V79.5439H129.742V84.5689H124.792Z" fill="#1626BA"/>
<path d="M134.827 108.019V87.878H139.368V92.331L138.55 92.5353C138.905 91.3642 139.423 90.4109 140.105 89.6756C140.787 88.9402 141.578 88.3955 142.478 88.0414C143.405 87.6874 144.374 87.5103 145.383 87.5103C147.647 87.5103 149.406 88.164 150.661 89.4713C151.943 90.7514 152.584 92.5898 152.584 94.9865V108.019H148.043V96.6615C148.043 94.8639 147.715 93.543 147.061 92.6987C146.406 91.8544 145.397 91.4323 144.033 91.4323C143.024 91.4323 142.164 91.6774 141.455 92.1676C140.773 92.6306 140.255 93.366 139.9 94.3737C139.546 95.3814 139.368 96.6615 139.368 98.2139V108.019H134.827Z" fill="#1626BA"/>
<path d="M166.52 108.386C164.829 108.386 163.356 108.114 162.101 107.569C160.874 107.025 159.864 106.262 159.073 105.282C158.282 104.301 157.696 103.198 157.314 101.972C156.932 100.72 156.741 99.4259 156.741 98.0913C156.741 96.7568 156.919 95.4631 157.273 94.2103C157.655 92.9302 158.228 91.7863 158.992 90.7786C159.755 89.7709 160.737 88.9811 161.938 88.4091C163.138 87.8099 164.556 87.5103 166.193 87.5103C167.748 87.5103 169.098 87.7827 170.244 88.3274C171.417 88.8449 172.385 89.5802 173.149 90.5335C173.912 91.4595 174.472 92.5217 174.826 93.72C175.208 94.9184 175.399 96.1985 175.399 97.5603C175.399 97.7509 175.385 98.0233 175.358 98.3773C175.358 98.7314 175.331 99.0854 175.276 99.4395H161.283C161.392 101.046 161.938 102.272 162.92 103.116C163.902 103.961 165.156 104.383 166.684 104.383C167.802 104.383 168.825 104.206 169.753 103.852C170.68 103.498 171.526 102.939 172.289 102.177L174.785 105.2C173.94 105.962 173.094 106.575 172.249 107.038C171.403 107.501 170.516 107.842 169.589 108.06C168.689 108.277 167.666 108.386 166.52 108.386ZM170.939 97.1517C170.994 96.9338 171.021 96.716 171.021 96.4981C171.048 96.2802 171.062 96.0623 171.062 95.8444C171.062 95.2452 170.953 94.6733 170.735 94.1286C170.544 93.5839 170.244 93.1072 169.834 92.6987C169.425 92.2629 168.921 91.9225 168.321 91.6774C167.72 91.405 167.039 91.2688 166.275 91.2688C165.211 91.2688 164.311 91.5003 163.574 91.9634C162.865 92.4264 162.306 93.0255 161.897 93.7609C161.515 94.469 161.283 95.2452 161.201 96.0895H172.412L170.939 97.1517Z" fill="#1626BA"/>
</svg>
