<svg width="512" height="512" viewBox="0 0 512 512" fill="none" xmlns="http://www.w3.org/2000/svg">
<rect width="512" height="512" fill="white"/>
<path d="M45.1323 290.716L75.2468 214.784H84.8486L114.854 290.716H101.106L80.0477 233.195L58.9894 290.716H45.1323ZM63.8993 274.811L67.8273 263.59H92.159L96.3052 274.811H63.8993Z" fill="#1626BA"/>
<path d="M133.784 290.716L111.853 237.008H125.164L138.803 275.029L152.66 237.008H165.753L143.822 290.716H133.784Z" fill="#1626BA"/>
<path d="M196.702 291.697C192.192 291.697 188.264 290.971 184.918 289.518C181.645 288.065 178.954 286.032 176.844 283.417C174.735 280.803 173.171 277.861 172.152 274.593C171.134 271.252 170.625 267.802 170.625 264.243C170.625 260.685 171.098 257.235 172.043 253.894C173.062 250.48 174.589 247.43 176.626 244.743C178.663 242.056 181.281 239.949 184.482 238.424C187.682 236.826 191.465 236.027 195.829 236.027C199.976 236.027 203.576 236.754 206.631 238.206C209.759 239.586 212.341 241.547 214.378 244.089C216.415 246.558 217.906 249.391 218.852 252.587C219.87 255.782 220.379 259.196 220.379 262.827C220.379 263.336 220.343 264.062 220.27 265.006C220.27 265.95 220.197 266.894 220.052 267.839H182.736C183.027 272.124 184.482 275.392 187.101 277.643C189.719 279.895 193.065 281.021 197.139 281.021C200.121 281.021 202.849 280.548 205.322 279.604C207.795 278.66 210.05 277.171 212.087 275.138L218.743 283.199C216.488 285.233 214.233 286.867 211.978 288.102C209.723 289.336 207.359 290.244 204.886 290.825C202.485 291.406 199.757 291.697 196.702 291.697ZM208.486 261.738C208.632 261.157 208.704 260.576 208.704 259.995C208.777 259.414 208.814 258.833 208.814 258.252C208.814 256.654 208.523 255.129 207.941 253.676C207.431 252.223 206.631 250.952 205.54 249.863C204.449 248.701 203.103 247.793 201.503 247.14C199.903 246.413 198.084 246.05 196.048 246.05C193.211 246.05 190.81 246.667 188.846 247.902C186.955 249.137 185.464 250.735 184.373 252.696C183.354 254.584 182.736 256.654 182.518 258.905H212.414L208.486 261.738Z" fill="#1626BA"/>
<path d="M232.165 290.716V237.008H244.276V248.883L242.094 249.427C243.04 246.304 244.422 243.762 246.24 241.801C248.059 239.84 250.168 238.388 252.569 237.444C255.042 236.499 257.624 236.027 260.315 236.027C266.353 236.027 271.045 237.77 274.391 241.257C277.809 244.67 279.519 249.573 279.519 255.964V290.716H267.408V260.43C267.408 255.637 266.535 252.115 264.789 249.863C263.043 247.612 260.352 246.486 256.715 246.486C254.023 246.486 251.732 247.14 249.841 248.447C248.022 249.681 246.64 251.642 245.695 254.33C244.749 257.017 244.276 260.43 244.276 264.57V290.716H232.165Z" fill="#1626BA"/>
<path d="M312.644 291.697C309.953 291.697 307.407 291.188 305.006 290.172C302.679 289.082 300.824 287.375 299.442 285.051C298.06 282.655 297.369 279.532 297.369 275.682V223.935L309.589 217.18V272.305C309.589 275.356 310.026 277.716 310.898 279.386C311.844 280.984 313.517 281.783 315.917 281.783C316.645 281.783 317.481 281.71 318.427 281.565C319.445 281.347 320.5 281.093 321.591 280.803V290.172C320.136 290.68 318.645 291.043 317.118 291.261C315.663 291.552 314.172 291.697 312.644 291.697ZM287.112 246.377V237.008H321.591V246.377H287.112Z" fill="#1626BA"/>
<path d="M332.322 290.716V237.008H344.434V290.716H332.322ZM331.777 228.184V214.784H344.979V228.184H331.777Z" fill="#1626BA"/>
<path d="M358.537 290.716V237.008H370.648V248.883L368.466 249.427C369.412 246.304 370.794 243.762 372.612 241.801C374.431 239.84 376.54 238.388 378.941 237.444C381.414 236.499 383.996 236.027 386.688 236.027C392.725 236.027 397.417 237.77 400.763 241.257C404.182 244.67 405.891 249.573 405.891 255.964V290.716H393.78V260.43C393.78 255.637 392.907 252.115 391.161 249.863C389.415 247.612 386.724 246.486 383.087 246.486C380.396 246.486 378.104 247.14 376.213 248.447C374.394 249.681 373.012 251.642 372.067 254.33C371.121 257.017 370.648 260.43 370.648 264.57V290.716H358.537Z" fill="#1626BA"/>
<path d="M443.053 291.697C438.544 291.697 434.616 290.971 431.27 289.518C427.996 288.065 425.305 286.032 423.195 283.417C421.086 280.803 419.522 277.861 418.504 274.593C417.485 271.252 416.976 267.802 416.976 264.243C416.976 260.685 417.449 257.235 418.394 253.894C419.413 250.48 420.94 247.43 422.977 244.743C425.014 242.056 427.633 239.949 430.833 238.424C434.034 236.826 437.816 236.027 442.181 236.027C446.327 236.027 449.927 236.754 452.983 238.206C456.11 239.586 458.693 241.547 460.729 244.089C462.766 246.558 464.257 249.391 465.203 252.587C466.221 255.782 466.73 259.196 466.73 262.827C466.73 263.336 466.694 264.062 466.621 265.006C466.621 265.95 466.549 266.894 466.403 267.839H429.087C429.378 272.124 430.833 275.392 433.452 277.643C436.07 279.895 439.416 281.021 443.49 281.021C446.472 281.021 449.2 280.548 451.673 279.604C454.146 278.66 456.401 277.171 458.438 275.138L465.094 283.199C462.839 285.233 460.584 286.867 458.329 288.102C456.074 289.336 453.71 290.244 451.237 290.825C448.836 291.406 446.109 291.697 443.053 291.697ZM454.837 261.738C454.983 261.157 455.056 260.576 455.056 259.995C455.128 259.414 455.165 258.833 455.165 258.252C455.165 256.654 454.874 255.129 454.292 253.676C453.783 252.223 452.983 250.952 451.891 249.863C450.8 248.701 449.455 247.793 447.854 247.14C446.254 246.413 444.436 246.05 442.399 246.05C439.562 246.05 437.161 246.667 435.197 247.902C433.306 249.137 431.815 250.735 430.724 252.696C429.706 254.584 429.087 256.654 428.869 258.905H458.765L454.837 261.738Z" fill="#1626BA"/>
</svg>
