<svg width="512" height="512" viewBox="0 0 512 512" fill="none" xmlns="http://www.w3.org/2000/svg">
<rect width="512" height="512" fill="#07071E"/>
<path d="M47.1323 290.716L77.2468 214.784H86.8486L116.854 290.716H103.106L82.0477 233.195L60.9894 290.716H47.1323ZM65.8993 274.811L69.8273 263.59H94.159L98.3052 274.811H65.8993Z" fill="white"/>
<path d="M135.784 290.716L113.853 237.008H127.164L140.803 275.029L154.66 237.008H167.753L145.822 290.716H135.784Z" fill="white"/>
<path d="M198.702 291.697C194.192 291.697 190.264 290.971 186.918 289.518C183.645 288.065 180.954 286.032 178.844 283.417C176.735 280.803 175.171 277.861 174.152 274.593C173.134 271.252 172.625 267.802 172.625 264.243C172.625 260.685 173.098 257.235 174.043 253.894C175.062 250.48 176.589 247.43 178.626 244.743C180.663 242.056 183.281 239.949 186.482 238.424C189.682 236.826 193.465 236.027 197.829 236.027C201.976 236.027 205.576 236.754 208.631 238.206C211.759 239.586 214.341 241.547 216.378 244.089C218.415 246.558 219.906 249.391 220.852 252.587C221.87 255.782 222.379 259.196 222.379 262.827C222.379 263.336 222.343 264.062 222.27 265.006C222.27 265.95 222.197 266.894 222.052 267.839H184.736C185.027 272.124 186.482 275.392 189.101 277.643C191.719 279.895 195.065 281.021 199.139 281.021C202.121 281.021 204.849 280.548 207.322 279.604C209.795 278.66 212.05 277.171 214.087 275.138L220.743 283.199C218.488 285.233 216.233 286.867 213.978 288.102C211.723 289.336 209.359 290.244 206.886 290.825C204.485 291.406 201.757 291.697 198.702 291.697ZM210.486 261.738C210.632 261.157 210.704 260.576 210.704 259.995C210.777 259.414 210.814 258.833 210.814 258.252C210.814 256.654 210.523 255.129 209.941 253.676C209.431 252.223 208.631 250.952 207.54 249.863C206.449 248.701 205.103 247.793 203.503 247.14C201.903 246.413 200.084 246.05 198.048 246.05C195.211 246.05 192.81 246.667 190.846 247.902C188.955 249.137 187.464 250.735 186.373 252.696C185.354 254.584 184.736 256.654 184.518 258.905H214.414L210.486 261.738Z" fill="white"/>
<path d="M234.165 290.716V237.008H246.276V248.883L244.094 249.427C245.04 246.304 246.422 243.762 248.24 241.801C250.059 239.84 252.168 238.388 254.569 237.444C257.042 236.499 259.624 236.027 262.315 236.027C268.353 236.027 273.045 237.77 276.391 241.257C279.809 244.67 281.519 249.573 281.519 255.964V290.716H269.408V260.43C269.408 255.637 268.535 252.115 266.789 249.863C265.043 247.612 262.352 246.486 258.715 246.486C256.023 246.486 253.732 247.14 251.841 248.447C250.022 249.681 248.64 251.642 247.695 254.33C246.749 257.017 246.276 260.43 246.276 264.57V290.716H234.165Z" fill="white"/>
<path d="M314.644 291.697C311.953 291.697 309.407 291.188 307.006 290.172C304.679 289.082 302.824 287.375 301.442 285.051C300.06 282.655 299.369 279.532 299.369 275.682V223.935L311.589 217.18V272.305C311.589 275.356 312.026 277.716 312.898 279.386C313.844 280.984 315.517 281.783 317.917 281.783C318.645 281.783 319.481 281.71 320.427 281.565C321.445 281.347 322.5 281.093 323.591 280.803V290.172C322.136 290.68 320.645 291.043 319.118 291.261C317.663 291.552 316.172 291.697 314.644 291.697ZM289.112 246.377V237.008H323.591V246.377H289.112Z" fill="white"/>
<path d="M334.322 290.716V237.008H346.434V290.716H334.322ZM333.777 228.184V214.784H346.979V228.184H333.777Z" fill="white"/>
<path d="M360.537 290.716V237.008H372.648V248.883L370.466 249.427C371.412 246.304 372.794 243.762 374.612 241.801C376.431 239.84 378.54 238.388 380.941 237.444C383.414 236.499 385.996 236.027 388.688 236.027C394.725 236.027 399.417 237.77 402.763 241.257C406.182 244.67 407.891 249.573 407.891 255.964V290.716H395.78V260.43C395.78 255.637 394.907 252.115 393.161 249.863C391.415 247.612 388.724 246.486 385.087 246.486C382.396 246.486 380.104 247.14 378.213 248.447C376.394 249.681 375.012 251.642 374.067 254.33C373.121 257.017 372.648 260.43 372.648 264.57V290.716H360.537Z" fill="white"/>
<path d="M445.053 291.697C440.544 291.697 436.616 290.971 433.27 289.518C429.996 288.065 427.305 286.032 425.195 283.417C423.086 280.803 421.522 277.861 420.504 274.593C419.485 271.252 418.976 267.802 418.976 264.243C418.976 260.685 419.449 257.235 420.394 253.894C421.413 250.48 422.94 247.43 424.977 244.743C427.014 242.056 429.633 239.949 432.833 238.424C436.034 236.826 439.816 236.027 444.181 236.027C448.327 236.027 451.927 236.754 454.983 238.206C458.11 239.586 460.693 241.547 462.729 244.089C464.766 246.558 466.257 249.391 467.203 252.587C468.221 255.782 468.73 259.196 468.73 262.827C468.73 263.336 468.694 264.062 468.621 265.006C468.621 265.95 468.549 266.894 468.403 267.839H431.087C431.378 272.124 432.833 275.392 435.452 277.643C438.07 279.895 441.416 281.021 445.49 281.021C448.472 281.021 451.2 280.548 453.673 279.604C456.146 278.66 458.401 277.171 460.438 275.138L467.094 283.199C464.839 285.233 462.584 286.867 460.329 288.102C458.074 289.336 455.71 290.244 453.237 290.825C450.836 291.406 448.109 291.697 445.053 291.697ZM456.837 261.738C456.983 261.157 457.056 260.576 457.056 259.995C457.128 259.414 457.165 258.833 457.165 258.252C457.165 256.654 456.874 255.129 456.292 253.676C455.783 252.223 454.983 250.952 453.891 249.863C452.8 248.701 451.455 247.793 449.854 247.14C448.254 246.413 446.436 246.05 444.399 246.05C441.562 246.05 439.161 246.667 437.197 247.902C435.306 249.137 433.815 250.735 432.724 252.696C431.706 254.584 431.087 256.654 430.869 258.905H460.765L456.837 261.738Z" fill="white"/>
</svg>
