<svg width="192" height="192" viewBox="0 0 192 192" fill="none" xmlns="http://www.w3.org/2000/svg">
<rect width="192" height="192" fill="#07071E"/>
<path d="M17.2998 109.019L28.5927 80.5439H32.1934L43.4454 109.019H38.29L30.3931 87.4482L22.4962 109.019H17.2998ZM24.3374 103.054L25.8104 98.8462H34.9348L36.4896 103.054H24.3374Z" fill="white"/>
<path d="M50.5441 109.019L42.3199 88.878H47.3117L52.4263 103.136L57.6227 88.878H62.5326L54.3084 109.019H50.5441Z" fill="white"/>
<path d="M74.1385 109.386C72.4473 109.386 70.9743 109.114 69.7196 108.569C68.4921 108.025 67.4828 107.262 66.6917 106.282C65.9007 105.301 65.3142 104.198 64.9323 102.972C64.5504 101.72 64.3595 100.426 64.3595 99.0913C64.3595 97.7568 64.5368 96.4631 64.8914 95.2103C65.2733 93.9302 65.8461 92.7863 66.6099 91.7786C67.3737 90.7709 68.3557 89.9811 69.5559 89.4091C70.7561 88.8099 72.1745 88.5103 73.8112 88.5103C75.366 88.5103 76.7163 88.7827 77.8619 89.3274C79.0349 89.8449 80.0032 90.5802 80.767 91.5335C81.5308 92.4595 82.09 93.5217 82.4446 94.72C82.8265 95.9184 83.0174 97.1985 83.0174 98.5603C83.0174 98.7509 83.0038 99.0233 82.9765 99.3773C82.9765 99.7314 82.9492 100.085 82.8947 100.44H68.9012C69.0103 102.046 69.5559 103.272 70.5379 104.116C71.5199 104.961 72.7746 105.383 74.3022 105.383C75.4206 105.383 76.4435 105.206 77.3709 104.852C78.2984 104.498 79.144 103.939 79.9078 103.177L82.4037 106.2C81.558 106.962 80.7124 107.575 79.8668 108.038C79.0212 108.501 78.1347 108.842 77.2073 109.06C76.3071 109.277 75.2842 109.386 74.1385 109.386ZM78.5575 98.1517C78.6121 97.9338 78.6393 97.716 78.6393 97.4981C78.6666 97.2802 78.6803 97.0623 78.6803 96.8444C78.6803 96.2452 78.5711 95.6733 78.3529 95.1286C78.162 94.5839 77.8619 94.1072 77.4528 93.6987C77.0436 93.2629 76.539 92.9225 75.9389 92.6774C75.3387 92.405 74.6568 92.2688 73.893 92.2688C72.8292 92.2688 71.929 92.5003 71.1925 92.9634C70.4833 93.4264 69.9241 94.0255 69.515 94.7609C69.1331 95.469 68.9012 96.2452 68.8194 97.0895H80.0305L78.5575 98.1517Z" fill="white"/>
<path d="M87.437 109.019V88.878H91.9787V93.331L91.1604 93.5353C91.515 92.3642 92.0333 91.4109 92.7152 90.6756C93.3972 89.9402 94.1882 89.3955 95.0884 89.0414C96.0158 88.6874 96.9842 88.5103 97.9935 88.5103C100.258 88.5103 102.017 89.164 103.272 90.4713C104.554 91.7514 105.195 93.5898 105.195 95.9865V109.019H100.653V97.6615C100.653 95.8639 100.326 94.543 99.671 93.6987C99.0164 92.8544 98.0071 92.4323 96.6432 92.4323C95.6339 92.4323 94.7747 92.6774 94.0655 93.1676C93.3835 93.6306 92.8653 94.366 92.5107 95.3737C92.1561 96.3814 91.9787 97.6615 91.9787 99.2139V109.019H87.437Z" fill="white"/>
<path d="M117.617 109.386C116.607 109.386 115.653 109.196 114.753 108.814C113.88 108.406 113.184 107.766 112.666 106.894C112.148 105.996 111.888 104.824 111.888 103.381V83.9756L116.471 81.4427V102.114C116.471 103.258 116.635 104.144 116.962 104.77C117.317 105.369 117.944 105.669 118.844 105.669C119.117 105.669 119.431 105.641 119.785 105.587C120.167 105.505 120.563 105.41 120.972 105.301V108.814C120.426 109.005 119.867 109.141 119.294 109.223C118.749 109.332 118.19 109.386 117.617 109.386ZM108.042 92.3914V88.878H120.972V92.3914H108.042Z" fill="white"/>
<path d="M124.996 109.019V88.878H129.538V109.019H124.996ZM124.792 85.5689V80.5439H129.742V85.5689H124.792Z" fill="white"/>
<path d="M134.827 109.019V88.878H139.368V93.331L138.55 93.5353C138.905 92.3642 139.423 91.4109 140.105 90.6756C140.787 89.9402 141.578 89.3955 142.478 89.0414C143.405 88.6874 144.374 88.5103 145.383 88.5103C147.647 88.5103 149.406 89.164 150.661 90.4713C151.943 91.7514 152.584 93.5898 152.584 95.9865V109.019H148.043V97.6615C148.043 95.8639 147.715 94.543 147.061 93.6987C146.406 92.8544 145.397 92.4323 144.033 92.4323C143.024 92.4323 142.164 92.6774 141.455 93.1676C140.773 93.6306 140.255 94.366 139.9 95.3737C139.546 96.3814 139.368 97.6615 139.368 99.2139V109.019H134.827Z" fill="white"/>
<path d="M166.52 109.386C164.829 109.386 163.356 109.114 162.101 108.569C160.874 108.025 159.864 107.262 159.073 106.282C158.282 105.301 157.696 104.198 157.314 102.972C156.932 101.72 156.741 100.426 156.741 99.0913C156.741 97.7568 156.919 96.4631 157.273 95.2103C157.655 93.9302 158.228 92.7863 158.992 91.7786C159.755 90.7709 160.737 89.9811 161.938 89.4091C163.138 88.8099 164.556 88.5103 166.193 88.5103C167.748 88.5103 169.098 88.7827 170.244 89.3274C171.417 89.8449 172.385 90.5802 173.149 91.5335C173.912 92.4595 174.472 93.5217 174.826 94.72C175.208 95.9184 175.399 97.1985 175.399 98.5603C175.399 98.7509 175.385 99.0233 175.358 99.3773C175.358 99.7314 175.331 100.085 175.276 100.44H161.283C161.392 102.046 161.938 103.272 162.92 104.116C163.902 104.961 165.156 105.383 166.684 105.383C167.802 105.383 168.825 105.206 169.753 104.852C170.68 104.498 171.526 103.939 172.289 103.177L174.785 106.2C173.94 106.962 173.094 107.575 172.249 108.038C171.403 108.501 170.516 108.842 169.589 109.06C168.689 109.277 167.666 109.386 166.52 109.386ZM170.939 98.1517C170.994 97.9338 171.021 97.716 171.021 97.4981C171.048 97.2802 171.062 97.0623 171.062 96.8444C171.062 96.2452 170.953 95.6733 170.735 95.1286C170.544 94.5839 170.244 94.1072 169.834 93.6987C169.425 93.2629 168.921 92.9225 168.321 92.6774C167.72 92.405 167.039 92.2688 166.275 92.2688C165.211 92.2688 164.311 92.5003 163.574 92.9634C162.865 93.4264 162.306 94.0255 161.897 94.7609C161.515 95.469 161.283 96.2452 161.201 97.0895H172.412L170.939 98.1517Z" fill="white"/>
</svg>
