<svg width="411" height="108" viewBox="0 0 411 108" fill="none" xmlns="http://www.w3.org/2000/svg">
<path d="M20 86.912L46.496 20H54.944L81.344 86.912H69.248L50.72 36.224L32.192 86.912H20ZM36.512 72.896L39.968 63.008H61.376L65.024 72.896H36.512Z" fill="#07071E"/>
<path d="M97.9993 86.912L78.7033 39.584H90.4153L102.415 73.088L114.607 39.584H126.127L106.831 86.912H97.9993Z" fill="#07071E"/>
<path d="M153.357 87.776C149.389 87.776 145.934 87.136 142.99 85.856C140.11 84.576 137.742 82.784 135.885 80.48C134.029 78.176 132.654 75.584 131.757 72.704C130.861 69.76 130.413 66.72 130.413 63.584C130.413 60.448 130.829 57.408 131.661 54.464C132.558 51.456 133.901 48.768 135.693 46.4C137.485 44.032 139.789 42.176 142.605 40.832C145.422 39.424 148.75 38.72 152.59 38.72C156.238 38.72 159.406 39.36 162.094 40.64C164.846 41.856 167.117 43.584 168.91 45.824C170.702 48 172.014 50.496 172.846 53.312C173.742 56.128 174.189 59.136 174.189 62.336C174.189 62.784 174.158 63.424 174.094 64.256C174.094 65.088 174.03 65.92 173.902 66.752H141.07C141.326 70.528 142.605 73.408 144.91 75.392C147.214 77.376 150.158 78.368 153.742 78.368C156.365 78.368 158.766 77.952 160.941 77.12C163.117 76.288 165.102 74.976 166.894 73.184L172.749 80.288C170.766 82.08 168.781 83.52 166.798 84.608C164.814 85.696 162.733 86.496 160.557 87.008C158.445 87.52 156.046 87.776 153.357 87.776ZM163.726 61.376C163.854 60.864 163.918 60.352 163.918 59.84C163.982 59.328 164.014 58.816 164.014 58.304C164.014 56.896 163.758 55.552 163.245 54.272C162.798 52.992 162.094 51.872 161.133 50.912C160.173 49.888 158.99 49.088 157.581 48.512C156.173 47.872 154.573 47.552 152.781 47.552C150.285 47.552 148.174 48.096 146.446 49.184C144.782 50.272 143.469 51.68 142.509 53.408C141.613 55.072 141.07 56.896 140.878 58.88H167.182L163.726 61.376Z" fill="#07071E"/>
<path d="M184.559 86.912V39.584H195.215V50.048L193.295 50.528C194.127 47.776 195.343 45.536 196.943 43.808C198.543 42.08 200.399 40.8 202.511 39.968C204.687 39.136 206.959 38.72 209.327 38.72C214.639 38.72 218.767 40.256 221.711 43.328C224.719 46.336 226.223 50.656 226.223 56.288V86.912H215.567V60.224C215.567 56 214.799 52.896 213.263 50.912C211.727 48.928 209.359 47.936 206.159 47.936C203.791 47.936 201.775 48.512 200.111 49.664C198.511 50.752 197.295 52.48 196.463 54.848C195.631 57.216 195.215 60.224 195.215 63.872V86.912H184.559Z" fill="#07071E"/>
<path d="M255.368 87.776C253 87.776 250.76 87.328 248.648 86.432C246.6 85.472 244.968 83.968 243.752 81.92C242.536 79.808 241.928 77.056 241.928 73.664V28.064L252.68 22.112V70.688C252.68 73.376 253.064 75.456 253.832 76.928C254.664 78.336 256.136 79.04 258.248 79.04C258.888 79.04 259.624 78.976 260.456 78.848C261.352 78.656 262.28 78.432 263.24 78.176V86.432C261.96 86.88 260.648 87.2 259.304 87.392C258.024 87.648 256.712 87.776 255.368 87.776ZM232.904 47.84V39.584H263.24V47.84H232.904Z" fill="#07071E"/>
<path d="M272.682 86.912V39.584H283.338V86.912H272.682ZM272.202 31.808V20H283.818V31.808H272.202Z" fill="#07071E"/>
<path d="M295.746 86.912V39.584H306.402V50.048L304.483 50.528C305.315 47.776 306.53 45.536 308.13 43.808C309.73 42.08 311.586 40.8 313.698 39.968C315.874 39.136 318.146 38.72 320.514 38.72C325.827 38.72 329.954 40.256 332.898 43.328C335.906 46.336 337.41 50.656 337.41 56.288V86.912H326.754V60.224C326.754 56 325.987 52.896 324.451 50.912C322.914 48.928 320.547 47.936 317.346 47.936C314.978 47.936 312.962 48.512 311.298 49.664C309.698 50.752 308.483 52.48 307.651 54.848C306.819 57.216 306.402 60.224 306.402 63.872V86.912H295.746Z" fill="#07071E"/>
<path d="M370.108 87.776C366.14 87.776 362.684 87.136 359.74 85.856C356.859 84.576 354.491 82.784 352.635 80.48C350.78 78.176 349.404 75.584 348.508 72.704C347.612 69.76 347.164 66.72 347.164 63.584C347.164 60.448 347.579 57.408 348.411 54.464C349.307 51.456 350.652 48.768 352.444 46.4C354.236 44.032 356.539 42.176 359.355 40.832C362.172 39.424 365.5 38.72 369.34 38.72C372.988 38.72 376.156 39.36 378.844 40.64C381.596 41.856 383.868 43.584 385.66 45.824C387.452 48 388.763 50.496 389.595 53.312C390.491 56.128 390.94 59.136 390.94 62.336C390.94 62.784 390.908 63.424 390.844 64.256C390.844 65.088 390.779 65.92 390.651 66.752H357.819C358.076 70.528 359.356 73.408 361.66 75.392C363.964 77.376 366.908 78.368 370.492 78.368C373.116 78.368 375.516 77.952 377.691 77.12C379.867 76.288 381.852 74.976 383.643 73.184L389.5 80.288C387.516 82.08 385.532 83.52 383.548 84.608C381.564 85.696 379.483 86.496 377.307 87.008C375.195 87.52 372.796 87.776 370.108 87.776ZM380.475 61.376C380.603 60.864 380.668 60.352 380.668 59.84C380.732 59.328 380.763 58.816 380.763 58.304C380.763 56.896 380.508 55.552 379.996 54.272C379.548 52.992 378.844 51.872 377.884 50.912C376.924 49.888 375.74 49.088 374.332 48.512C372.924 47.872 371.323 47.552 369.531 47.552C367.035 47.552 364.923 48.096 363.195 49.184C361.531 50.272 360.219 51.68 359.259 53.408C358.363 55.072 357.819 56.896 357.628 58.88H383.931L380.475 61.376Z" fill="#07071E"/>
</svg>
