<svg width="512" height="512" viewBox="0 0 512 512" fill="none" xmlns="http://www.w3.org/2000/svg">
<rect width="512" height="512" fill="#1626BA"/>
<path d="M46.1323 290.716L76.2468 214.784H85.8486L115.854 290.716H102.106L81.0477 233.195L59.9894 290.716H46.1323ZM64.8993 274.811L68.8273 263.59H93.159L97.3052 274.811H64.8993Z" fill="white"/>
<path d="M134.784 290.716L112.853 237.008H126.164L139.803 275.029L153.66 237.008H166.753L144.822 290.716H134.784Z" fill="white"/>
<path d="M197.702 291.697C193.192 291.697 189.264 290.971 185.918 289.518C182.645 288.065 179.954 286.032 177.844 283.417C175.735 280.803 174.171 277.861 173.152 274.593C172.134 271.252 171.625 267.802 171.625 264.243C171.625 260.685 172.098 257.235 173.043 253.894C174.062 250.48 175.589 247.43 177.626 244.743C179.663 242.056 182.281 239.949 185.482 238.424C188.682 236.826 192.465 236.027 196.829 236.027C200.976 236.027 204.576 236.754 207.631 238.206C210.759 239.586 213.341 241.547 215.378 244.089C217.415 246.558 218.906 249.391 219.852 252.587C220.87 255.782 221.379 259.196 221.379 262.827C221.379 263.336 221.343 264.062 221.27 265.006C221.27 265.95 221.197 266.894 221.052 267.839H183.736C184.027 272.124 185.482 275.392 188.101 277.643C190.719 279.895 194.065 281.021 198.139 281.021C201.121 281.021 203.849 280.548 206.322 279.604C208.795 278.66 211.05 277.171 213.087 275.138L219.743 283.199C217.488 285.233 215.233 286.867 212.978 288.102C210.723 289.336 208.359 290.244 205.886 290.825C203.485 291.406 200.757 291.697 197.702 291.697ZM209.486 261.738C209.632 261.157 209.704 260.576 209.704 259.995C209.777 259.414 209.814 258.833 209.814 258.252C209.814 256.654 209.523 255.129 208.941 253.676C208.431 252.223 207.631 250.952 206.54 249.863C205.449 248.701 204.103 247.793 202.503 247.14C200.903 246.413 199.084 246.05 197.048 246.05C194.211 246.05 191.81 246.667 189.846 247.902C187.955 249.137 186.464 250.735 185.373 252.696C184.354 254.584 183.736 256.654 183.518 258.905H213.414L209.486 261.738Z" fill="white"/>
<path d="M233.165 290.716V237.008H245.276V248.883L243.094 249.427C244.04 246.304 245.422 243.762 247.24 241.801C249.059 239.84 251.168 238.388 253.569 237.444C256.042 236.499 258.624 236.027 261.315 236.027C267.353 236.027 272.045 237.77 275.391 241.257C278.809 244.67 280.519 249.573 280.519 255.964V290.716H268.408V260.43C268.408 255.637 267.535 252.115 265.789 249.863C264.043 247.612 261.352 246.486 257.715 246.486C255.023 246.486 252.732 247.14 250.841 248.447C249.022 249.681 247.64 251.642 246.695 254.33C245.749 257.017 245.276 260.43 245.276 264.57V290.716H233.165Z" fill="white"/>
<path d="M313.644 291.697C310.953 291.697 308.407 291.188 306.006 290.172C303.679 289.082 301.824 287.375 300.442 285.051C299.06 282.655 298.369 279.532 298.369 275.682V223.935L310.589 217.18V272.305C310.589 275.356 311.026 277.716 311.898 279.386C312.844 280.984 314.517 281.783 316.917 281.783C317.645 281.783 318.481 281.71 319.427 281.565C320.445 281.347 321.5 281.093 322.591 280.803V290.172C321.136 290.68 319.645 291.043 318.118 291.261C316.663 291.552 315.172 291.697 313.644 291.697ZM288.112 246.377V237.008H322.591V246.377H288.112Z" fill="white"/>
<path d="M333.322 290.716V237.008H345.434V290.716H333.322ZM332.777 228.184V214.784H345.979V228.184H332.777Z" fill="white"/>
<path d="M359.537 290.716V237.008H371.648V248.883L369.466 249.427C370.412 246.304 371.794 243.762 373.612 241.801C375.431 239.84 377.54 238.388 379.941 237.444C382.414 236.499 384.996 236.027 387.688 236.027C393.725 236.027 398.417 237.77 401.763 241.257C405.182 244.67 406.891 249.573 406.891 255.964V290.716H394.78V260.43C394.78 255.637 393.907 252.115 392.161 249.863C390.415 247.612 387.724 246.486 384.087 246.486C381.396 246.486 379.104 247.14 377.213 248.447C375.394 249.681 374.012 251.642 373.067 254.33C372.121 257.017 371.648 260.43 371.648 264.57V290.716H359.537Z" fill="white"/>
<path d="M444.053 291.697C439.544 291.697 435.616 290.971 432.27 289.518C428.996 288.065 426.305 286.032 424.195 283.417C422.086 280.803 420.522 277.861 419.504 274.593C418.485 271.252 417.976 267.802 417.976 264.243C417.976 260.685 418.449 257.235 419.394 253.894C420.413 250.48 421.94 247.43 423.977 244.743C426.014 242.056 428.633 239.949 431.833 238.424C435.034 236.826 438.816 236.027 443.181 236.027C447.327 236.027 450.927 236.754 453.983 238.206C457.11 239.586 459.693 241.547 461.729 244.089C463.766 246.558 465.257 249.391 466.203 252.587C467.221 255.782 467.73 259.196 467.73 262.827C467.73 263.336 467.694 264.062 467.621 265.006C467.621 265.95 467.549 266.894 467.403 267.839H430.087C430.378 272.124 431.833 275.392 434.452 277.643C437.07 279.895 440.416 281.021 444.49 281.021C447.472 281.021 450.2 280.548 452.673 279.604C455.146 278.66 457.401 277.171 459.438 275.138L466.094 283.199C463.839 285.233 461.584 286.867 459.329 288.102C457.074 289.336 454.71 290.244 452.237 290.825C449.836 291.406 447.109 291.697 444.053 291.697ZM455.837 261.738C455.983 261.157 456.056 260.576 456.056 259.995C456.128 259.414 456.165 258.833 456.165 258.252C456.165 256.654 455.874 255.129 455.292 253.676C454.783 252.223 453.983 250.952 452.891 249.863C451.8 248.701 450.455 247.793 448.854 247.14C447.254 246.413 445.436 246.05 443.399 246.05C440.562 246.05 438.161 246.667 436.197 247.902C434.306 249.137 432.815 250.735 431.724 252.696C430.706 254.584 430.087 256.654 429.869 258.905H459.765L455.837 261.738Z" fill="white"/>
</svg>
