<svg width="192" height="192" viewBox="0 0 192 192" fill="none" xmlns="http://www.w3.org/2000/svg">
<path d="M96 192C138.067 192 161.452 192 176.726 176.726C192 161.452 192 138.067 192 96C192 53.9333 192 30.5479 176.726 15.2739C161.452 -3.34949e-06 138.067 0 96 0C53.9333 0 30.5479 -3.34949e-06 15.2739 15.2739C-3.34949e-06 30.5479 0 53.9333 0 96C0 138.067 -3.34949e-06 161.452 15.2739 176.726C30.5479 192 53.9333 192 96 192Z" fill="#1626BA"/>
<path d="M17.2996 109.019L28.5925 80.5439H32.1932L43.4452 109.019H38.2897L30.3928 87.4482L22.496 109.019H17.2996ZM24.3372 103.054L25.8102 98.8462H34.9346L36.4894 103.054H24.3372Z" fill="white"/>
<path d="M50.5439 109.019L42.3197 88.878H47.3115L52.426 103.136L57.6224 88.878H62.5324L54.3082 109.019H50.5439Z" fill="white"/>
<path d="M74.1383 109.386C72.4471 109.386 70.9741 109.114 69.7193 108.569C68.4918 108.025 67.4825 107.262 66.6915 106.282C65.9004 105.301 65.314 104.198 64.9321 102.972C64.5502 101.72 64.3592 100.426 64.3592 99.0913C64.3592 97.7568 64.5366 96.4631 64.8912 95.2103C65.273 93.9302 65.8459 92.7863 66.6097 91.7786C67.3734 90.7709 68.3554 89.9811 69.5556 89.4091C70.7559 88.8099 72.1743 88.5103 73.811 88.5103C75.3658 88.5103 76.716 88.7827 77.8617 89.3274C79.0346 89.8449 80.003 90.5802 80.7668 91.5335C81.5305 92.4595 82.0897 93.5217 82.4443 94.72C82.8262 95.9184 83.0172 97.1985 83.0172 98.5603C83.0172 98.7509 83.0035 99.0233 82.9762 99.3773C82.9762 99.7314 82.949 100.085 82.8944 100.44H68.901C69.0101 102.046 69.5556 103.272 70.5376 104.116C71.5196 104.961 72.7744 105.383 74.3019 105.383C75.4203 105.383 76.4432 105.206 77.3707 104.852C78.2981 104.498 79.1437 103.939 79.9075 103.177L82.4034 106.2C81.5578 106.962 80.7122 107.575 79.8666 108.038C79.021 108.501 78.1345 108.842 77.207 109.06C76.3069 109.277 75.2839 109.386 74.1383 109.386ZM78.5573 98.1517C78.6118 97.9338 78.6391 97.716 78.6391 97.4981C78.6664 97.2802 78.68 97.0623 78.68 96.8444C78.68 96.2452 78.5709 95.6733 78.3527 95.1286C78.1617 94.5839 77.8617 94.1072 77.4525 93.6987C77.0434 93.2629 76.5387 92.9225 75.9386 92.6774C75.3385 92.405 74.6566 92.2688 73.8928 92.2688C72.829 92.2688 71.9288 92.5003 71.1923 92.9634C70.4831 93.4264 69.9239 94.0255 69.5147 94.7609C69.1328 95.469 68.901 96.2452 68.8191 97.0895H80.0303L78.5573 98.1517Z" fill="white"/>
<path d="M87.4368 109.019V88.878H91.9785V93.331L91.1602 93.5353C91.5148 92.3642 92.0331 91.4109 92.715 90.6756C93.3969 89.9402 94.188 89.3955 95.0882 89.0414C96.0156 88.6874 96.9839 88.5103 97.9932 88.5103C100.257 88.5103 102.017 89.164 103.271 90.4713C104.553 91.7514 105.195 93.5898 105.195 95.9865V109.019H100.653V97.6615C100.653 95.8639 100.325 94.543 99.6708 93.6987C99.0161 92.8544 98.0069 92.4323 96.643 92.4323C95.6337 92.4323 94.7745 92.6774 94.0652 93.1676C93.3833 93.6306 92.865 94.366 92.5104 95.3737C92.1558 96.3814 91.9785 97.6615 91.9785 99.2139V109.019H87.4368Z" fill="white"/>
<path d="M117.617 109.386C116.607 109.386 115.653 109.196 114.752 108.814C113.879 108.406 113.184 107.766 112.666 106.894C112.147 105.996 111.888 104.824 111.888 103.381V83.9756L116.471 81.4427V102.114C116.471 103.258 116.635 104.144 116.962 104.77C117.316 105.369 117.944 105.669 118.844 105.669C119.117 105.669 119.43 105.641 119.785 105.587C120.167 105.505 120.562 105.41 120.972 105.301V108.814C120.426 109.005 119.867 109.141 119.294 109.223C118.749 109.332 118.189 109.386 117.617 109.386ZM108.042 92.3914V88.878H120.972V92.3914H108.042Z" fill="white"/>
<path d="M124.996 109.019V88.878H129.538V109.019H124.996ZM124.791 85.5689V80.5439H129.742V85.5689H124.791Z" fill="white"/>
<path d="M134.826 109.019V88.878H139.368V93.331L138.55 93.5353C138.904 92.3642 139.423 91.4109 140.105 90.6756C140.787 89.9402 141.578 89.3955 142.478 89.0414C143.405 88.6874 144.374 88.5103 145.383 88.5103C147.647 88.5103 149.406 89.164 150.661 90.4713C151.943 91.7514 152.584 93.5898 152.584 95.9865V109.019H148.042V97.6615C148.042 95.8639 147.715 94.543 147.06 93.6987C146.406 92.8544 145.396 92.4323 144.033 92.4323C143.023 92.4323 142.164 92.6774 141.455 93.1676C140.773 93.6306 140.255 94.366 139.9 95.3737C139.545 96.3814 139.368 97.6615 139.368 99.2139V109.019H134.826Z" fill="white"/>
<path d="M166.52 109.386C164.829 109.386 163.356 109.114 162.101 108.569C160.874 108.025 159.864 107.262 159.073 106.282C158.282 105.301 157.696 104.198 157.314 102.972C156.932 101.72 156.741 100.426 156.741 99.0913C156.741 97.7568 156.918 96.4631 157.273 95.2103C157.655 93.9302 158.228 92.7863 158.991 91.7786C159.755 90.7709 160.737 89.9811 161.937 89.4091C163.138 88.8099 164.556 88.5103 166.193 88.5103C167.747 88.5103 169.098 88.7827 170.243 89.3274C171.416 89.8449 172.385 90.5802 173.148 91.5335C173.912 92.4595 174.471 93.5217 174.826 94.72C175.208 95.9184 175.399 97.1985 175.399 98.5603C175.399 98.7509 175.385 99.0233 175.358 99.3773C175.358 99.7314 175.331 100.085 175.276 100.44H161.283C161.392 102.046 161.937 103.272 162.919 104.116C163.901 104.961 165.156 105.383 166.684 105.383C167.802 105.383 168.825 105.206 169.752 104.852C170.68 104.498 171.525 103.939 172.289 103.177L174.785 106.2C173.94 106.962 173.094 107.575 172.248 108.038C171.403 108.501 170.516 108.842 169.589 109.06C168.689 109.277 167.666 109.386 166.52 109.386ZM170.939 98.1517C170.994 97.9338 171.021 97.716 171.021 97.4981C171.048 97.2802 171.062 97.0623 171.062 96.8444C171.062 96.2452 170.953 95.6733 170.734 95.1286C170.543 94.5839 170.243 94.1072 169.834 93.6987C169.425 93.2629 168.92 92.9225 168.32 92.6774C167.72 92.405 167.038 92.2688 166.274 92.2688C165.211 92.2688 164.311 92.5003 163.574 92.9634C162.865 93.4264 162.306 94.0255 161.896 94.7609C161.515 95.469 161.283 96.2452 161.201 97.0895H172.412L170.939 98.1517Z" fill="white"/>
</svg>
