<svg width="622" height="147" viewBox="0 0 622 147" fill="none" xmlns="http://www.w3.org/2000/svg">
<path d="M20 124.984L61.5719 20H74.8268L116.248 124.984H97.2696L68.1993 45.4553L39.1291 124.984H20ZM45.9071 102.993L51.3296 87.4791H84.9185L90.6422 102.993H45.9071Z" fill="#1626BA"/>
<path d="M142.38 124.984L112.105 50.7271H130.481L149.309 103.294L168.438 50.7271H186.512L156.237 124.984H142.38Z" fill="#1626BA"/>
<path d="M229.236 126.34C223.011 126.34 217.588 125.336 212.969 123.327C208.45 121.319 204.735 118.507 201.823 114.892C198.911 111.277 196.752 107.211 195.346 102.692C193.94 98.0729 193.238 93.3032 193.238 88.3828C193.238 83.4625 193.89 78.6927 195.196 74.0736C196.601 69.3541 198.71 65.1367 201.522 61.4213C204.333 57.7059 207.948 54.7939 212.367 52.6852C216.785 50.476 222.007 49.3715 228.031 49.3715C233.755 49.3715 238.726 50.3756 242.943 52.3839C247.261 54.2918 250.826 57.003 253.637 60.5176C256.449 63.9317 258.508 67.8479 259.813 72.2662C261.219 76.6844 261.922 81.4039 261.922 86.4247C261.922 87.1276 261.871 88.1318 261.771 89.4372C261.771 90.7426 261.671 92.048 261.47 93.3534H209.957C210.358 99.2779 212.367 103.797 215.982 106.909C219.597 110.022 224.216 111.579 229.839 111.579C233.956 111.579 237.722 110.926 241.136 109.621C244.55 108.315 247.663 106.257 250.474 103.445L259.662 114.591C256.549 117.403 253.437 119.662 250.324 121.369C247.211 123.076 243.947 124.331 240.533 125.135C237.219 125.938 233.454 126.34 229.236 126.34ZM245.504 84.9185C245.705 84.1152 245.805 83.3118 245.805 82.5085C245.905 81.7052 245.956 80.9019 245.956 80.0985C245.956 77.8894 245.554 75.7807 244.751 73.7724C244.048 71.7641 242.943 70.0068 241.437 68.5006C239.931 66.8939 238.073 65.6387 235.864 64.735C233.655 63.7309 231.144 63.2288 228.333 63.2288C224.417 63.2288 221.103 64.0823 218.392 65.7894C215.781 67.4964 213.722 69.7056 212.216 72.4168C210.81 75.0276 209.957 77.8894 209.655 81.0023H250.926L245.504 84.9185Z" fill="#1626BA"/>
<path d="M278.191 124.984V50.7271H294.91V67.145L291.898 67.8981C293.203 63.5802 295.111 60.0657 297.622 57.3545C300.132 54.6433 303.044 52.635 306.358 51.3296C309.772 50.0242 313.337 49.3715 317.052 49.3715C325.386 49.3715 331.863 51.7814 336.482 56.6014C341.202 61.3209 343.562 68.0989 343.562 76.9355V124.984H326.842V83.111C326.842 76.4836 325.637 71.6135 323.228 68.5006C320.818 65.3877 317.102 63.8313 312.081 63.8313C308.366 63.8313 305.203 64.735 302.592 66.5425C300.082 68.2495 298.174 70.9608 296.868 74.6761C295.563 78.3915 294.91 83.111 294.91 88.8347V124.984H278.191Z" fill="#1626BA"/>
<path d="M389.29 126.34C385.574 126.34 382.06 125.637 378.746 124.231C375.533 122.725 372.972 120.365 371.064 117.152C369.157 113.838 368.203 109.52 368.203 104.198V32.6523L385.072 23.3137V99.5289C385.072 103.746 385.675 107.01 386.88 109.319C388.185 111.529 390.495 112.633 393.808 112.633C394.813 112.633 395.967 112.533 397.273 112.332C398.679 112.031 400.135 111.679 401.641 111.277V124.231C399.633 124.934 397.574 125.436 395.465 125.737C393.457 126.139 391.398 126.34 389.29 126.34ZM354.044 63.6807V50.7271H401.641V63.6807H354.044Z" fill="#1626BA"/>
<path d="M416.455 124.984V50.7271H433.174V124.984H416.455ZM415.702 38.5266V20H433.927V38.5266H415.702Z" fill="#1626BA"/>
<path d="M452.643 124.984V50.7271H469.362V67.145L466.35 67.8981C467.655 63.5802 469.563 60.0657 472.074 57.3545C474.584 54.6433 477.496 52.635 480.81 51.3296C484.224 50.0242 487.789 49.3715 491.504 49.3715C499.838 49.3715 506.315 51.7814 510.934 56.6014C515.654 61.3209 518.014 68.0989 518.014 76.9355V124.984H501.294V83.111C501.294 76.4836 500.089 71.6135 497.679 68.5006C495.27 65.3877 491.554 63.8313 486.533 63.8313C482.818 63.8313 479.655 64.735 477.044 66.5425C474.534 68.2495 472.626 70.9608 471.32 74.6761C470.015 78.3915 469.362 83.111 469.362 88.8347V124.984H452.643Z" fill="#1626BA"/>
<path d="M569.315 126.34C563.089 126.34 557.667 125.336 553.047 123.327C548.529 121.319 544.813 118.507 541.901 114.892C538.989 111.277 536.83 107.211 535.425 102.692C534.019 98.0729 533.316 93.3032 533.316 88.3828C533.316 83.4625 533.969 78.6927 535.274 74.0736C536.68 69.3541 538.789 65.1367 541.6 61.4213C544.412 57.7059 548.027 54.7939 552.445 52.6852C556.863 50.476 562.085 49.3715 568.11 49.3715C573.833 49.3715 578.804 50.3756 583.021 52.3839C587.339 54.2918 590.904 57.003 593.716 60.5176C596.527 63.9317 598.586 67.8479 599.891 72.2662C601.297 76.6844 602 81.4039 602 86.4247C602 87.1276 601.95 88.1318 601.849 89.4372C601.849 90.7426 601.749 92.048 601.548 93.3534H550.035C550.437 99.2779 552.445 103.797 556.06 106.909C559.675 110.022 564.294 111.579 569.917 111.579C574.034 111.579 577.8 110.926 581.214 109.621C584.628 108.315 587.741 106.257 590.553 103.445L599.741 114.591C596.628 117.403 593.515 119.662 590.402 121.369C587.289 123.076 584.026 124.331 580.612 125.135C577.298 125.938 573.532 126.34 569.315 126.34ZM585.582 84.9185C585.783 84.1152 585.883 83.3118 585.883 82.5085C585.984 81.7052 586.034 80.9019 586.034 80.0985C586.034 77.8894 585.632 75.7807 584.829 73.7724C584.126 71.7641 583.021 70.0068 581.515 68.5006C580.009 66.8939 578.151 65.6387 575.942 64.735C573.733 63.7309 571.223 63.2288 568.411 63.2288C564.495 63.2288 561.181 64.0823 558.47 65.7894C555.859 67.4964 553.801 69.7056 552.294 72.4168C550.889 75.0276 550.035 77.8894 549.734 81.0023H591.004L585.582 84.9185Z" fill="#1626BA"/>
</svg>
